<svg width="78" height="22" viewBox="0 0 78 22" fill="none" xmlns="http://www.w3.org/2000/svg">
<rect x="23.3784" y="2.97394" width="17.4292" height="15.3656" rx="4" fill="#141856"/>
<rect x="26.6897" y="5.95227" width="10.8069" height="9.40897" rx="3.5" fill="#141856" stroke="white"/>
<rect x="25.6274" y="1.98267" width="1.6867" height="0.99133" fill="#141856"/>
<rect x="36.8718" y="1.98267" width="1.6867" height="0.99133" fill="#141856"/>
<rect x="34.0608" y="1.98267" width="1.6867" height="0.99133" fill="#141856"/>
<rect x="31.2495" y="1.98267" width="1.6867" height="0.99133" fill="#141856"/>
<rect x="28.4382" y="1.98267" width="1.6867" height="0.99133" fill="#141856"/>
<rect x="25.6274" y="18.3396" width="1.6867" height="0.99133" fill="#141856"/>
<rect x="36.8718" y="18.3396" width="1.6867" height="0.99133" fill="#141856"/>
<rect x="34.0608" y="18.3396" width="1.6867" height="0.99133" fill="#141856"/>
<rect x="31.2495" y="18.3396" width="1.6867" height="0.99133" fill="#141856"/>
<rect x="28.4382" y="18.3396" width="1.6867" height="0.99133" fill="#141856"/>
<rect x="23.3784" y="4.95667" width="1.487" height="1.12447" transform="rotate(90 23.3784 4.95667)" fill="#141856"/>
<rect x="23.3784" y="14.8699" width="1.487" height="1.12447" transform="rotate(90 23.3784 14.8699)" fill="#141856"/>
<rect x="23.3784" y="12.3917" width="1.487" height="1.12447" transform="rotate(90 23.3784 12.3917)" fill="#141856"/>
<rect x="23.3784" y="9.91333" width="1.487" height="1.12447" transform="rotate(90 23.3784 9.91333)" fill="#141856"/>
<rect x="23.3784" y="7.43494" width="1.487" height="1.12447" transform="rotate(90 23.3784 7.43494)" fill="#141856"/>
<rect x="40.8076" y="6.44366" width="1.487" height="1.12447" transform="rotate(-90 40.8076 6.44366)" fill="#141856"/>
<rect x="40.8076" y="16.3534" width="1.487" height="1.12447" transform="rotate(-90 40.8076 16.3534)" fill="#141856"/>
<rect x="40.8076" y="13.8787" width="1.487" height="1.12447" transform="rotate(-90 40.8076 13.8787)" fill="#141856"/>
<rect x="40.8076" y="11.4003" width="1.487" height="1.12447" transform="rotate(-90 40.8076 11.4003)" fill="#141856"/>
<rect x="40.8076" y="8.92194" width="1.487" height="1.12447" transform="rotate(-90 40.8076 8.92194)" fill="#141856"/>
<rect x="26.1897" width="0.562233" height="1.487" fill="#141856"/>
<rect x="37.4343" width="0.562233" height="1.487" fill="#141856"/>
<rect x="34.623" width="0.562233" height="1.487" fill="#141856"/>
<rect x="31.812" width="0.562233" height="1.487" fill="#141856"/>
<rect x="29.0005" width="0.562233" height="1.487" fill="#141856"/>
<rect x="20.0049" y="15.8613" width="0.495665" height="1.6867" transform="rotate(-90 20.0049 15.8613)" fill="#141856"/>
<rect x="20.0049" y="5.948" width="0.495665" height="1.6867" transform="rotate(-90 20.0049 5.948)" fill="#141856"/>
<rect x="20.0049" y="8.42633" width="0.495665" height="1.6867" transform="rotate(-90 20.0049 8.42633)" fill="#141856"/>
<rect x="20.0049" y="10.9046" width="0.495665" height="1.6867" transform="rotate(-90 20.0049 10.9046)" fill="#141856"/>
<rect x="20.0049" y="13.3829" width="0.495665" height="1.6867" transform="rotate(-90 20.0049 13.3829)" fill="#141856"/>
<rect x="42.4944" y="5.948" width="0.495665" height="1.6867" transform="rotate(-90 42.4944 5.948)" fill="#141856"/>
<rect x="42.4944" y="15.8613" width="0.495665" height="1.6867" transform="rotate(-90 42.4944 15.8613)" fill="#141856"/>
<rect x="42.4944" y="13.3829" width="0.495665" height="1.6867" transform="rotate(-90 42.4944 13.3829)" fill="#141856"/>
<rect x="42.4944" y="10.9046" width="0.495665" height="1.6867" transform="rotate(-90 42.4944 10.9046)" fill="#141856"/>
<rect x="42.4944" y="8.42633" width="0.495665" height="1.6867" transform="rotate(-90 42.4944 8.42633)" fill="#141856"/>
<rect x="26.1897" y="19.8266" width="0.562233" height="1.487" fill="#141856"/>
<rect x="37.4343" y="19.8266" width="0.562233" height="1.487" fill="#141856"/>
<rect x="34.623" y="19.8266" width="0.562233" height="1.487" fill="#141856"/>
<rect x="31.812" y="19.8266" width="0.562233" height="1.487" fill="#141856"/>
<rect x="29.0005" y="19.8266" width="0.562233" height="1.487" fill="#141856"/>
<path d="M3.53693 17.6748V7.1748H5.03693V17.6748H3.53693ZM11.2005 17.7648C10.4005 17.7648 9.78049 17.5498 9.34049 17.1198C8.90049 16.6898 8.68049 16.0748 8.68049 15.2748V7.9848H10.1205V15.2148C10.1205 15.6448 10.2255 15.9748 10.4355 16.2048C10.6555 16.4348 10.9655 16.5498 11.3655 16.5498C11.8155 16.5498 12.1905 16.4248 12.4905 16.1748L12.9405 17.2098C12.7205 17.3998 12.4555 17.5398 12.1455 17.6298C11.8455 17.7198 11.5305 17.7648 11.2005 17.7648ZM7.33049 10.9098V9.7248H12.4005V10.9098H7.33049Z" fill="#141856"/>
<path d="M3.53693 17.6748H2.53693C2.53693 18.2271 2.98465 18.6748 3.53693 18.6748V17.6748ZM3.53693 7.1748V6.1748C2.98465 6.1748 2.53693 6.62252 2.53693 7.1748H3.53693ZM5.03693 7.1748H6.03693C6.03693 6.62252 5.58922 6.1748 5.03693 6.1748V7.1748ZM5.03693 17.6748V18.6748C5.58922 18.6748 6.03693 18.2271 6.03693 17.6748H5.03693ZM4.53693 17.6748V7.1748H2.53693V17.6748H4.53693ZM3.53693 8.1748H5.03693V6.1748H3.53693V8.1748ZM4.03693 7.1748V17.6748H6.03693V7.1748H4.03693ZM5.03693 16.6748H3.53693V18.6748H5.03693V16.6748ZM9.34049 17.1198L8.64155 17.835L9.34049 17.1198ZM8.68049 7.9848V6.9848C8.1282 6.9848 7.68049 7.43252 7.68049 7.9848H8.68049ZM10.1205 7.9848H11.1205C11.1205 7.43252 10.6728 6.9848 10.1205 6.9848V7.9848ZM10.4355 16.2048L9.697 16.8791C9.70222 16.8848 9.7075 16.8904 9.71285 16.896L10.4355 16.2048ZM12.4905 16.1748L13.4076 15.7761C13.282 15.4873 13.0277 15.2745 12.7214 15.2018C12.415 15.1291 12.0922 15.205 11.8503 15.4066L12.4905 16.1748ZM12.9405 17.2098L13.5941 17.9666C13.9253 17.6806 14.0321 17.2124 13.8576 16.8111L12.9405 17.2098ZM12.1455 17.6298L11.8667 16.6694L11.8581 16.672L12.1455 17.6298ZM7.33049 10.9098H6.33049C6.33049 11.4621 6.7782 11.9098 7.33049 11.9098V10.9098ZM7.33049 9.7248V8.7248C6.7782 8.7248 6.33049 9.17252 6.33049 9.7248H7.33049ZM12.4005 9.7248H13.4005C13.4005 9.17252 12.9528 8.7248 12.4005 8.7248V9.7248ZM12.4005 10.9098V11.9098C12.9528 11.9098 13.4005 11.4621 13.4005 10.9098H12.4005ZM11.2005 16.7648C10.5802 16.7648 10.2414 16.6021 10.0394 16.4046L8.64155 17.835C9.31953 18.4976 10.2207 18.7648 11.2005 18.7648V16.7648ZM10.0394 16.4046C9.84503 16.2146 9.68049 15.8902 9.68049 15.2748H7.68049C7.68049 16.2594 7.95595 17.165 8.64155 17.835L10.0394 16.4046ZM9.68049 15.2748V7.9848H7.68049V15.2748H9.68049ZM8.68049 8.9848H10.1205V6.9848H8.68049V8.9848ZM9.12049 7.9848V15.2148H11.1205V7.9848H9.12049ZM9.12049 15.2148C9.12049 15.7987 9.26385 16.4047 9.697 16.8791L11.174 15.5305C11.1739 15.5305 11.1736 15.5301 11.173 15.5292C11.1723 15.5283 11.171 15.5265 11.1693 15.5233C11.1658 15.5171 11.1593 15.5041 11.1522 15.4816C11.1373 15.435 11.1205 15.3507 11.1205 15.2148H9.12049ZM9.71285 16.896C10.1674 17.3712 10.767 17.5498 11.3655 17.5498V15.5498C11.26 15.5498 11.2039 15.5345 11.1808 15.526C11.1621 15.5191 11.1593 15.5148 11.1581 15.5136L9.71285 16.896ZM11.3655 17.5498C12.0118 17.5498 12.624 17.3652 13.1307 16.943L11.8503 15.4066C11.7569 15.4844 11.6192 15.5498 11.3655 15.5498V17.5498ZM11.5734 16.5735L12.0234 17.6085L13.8576 16.8111L13.4076 15.7761L11.5734 16.5735ZM12.2869 16.453C12.1872 16.5391 12.0539 16.6151 11.8667 16.6695L12.4243 18.5902C12.8571 18.4645 13.2538 18.2606 13.5941 17.9666L12.2869 16.453ZM11.8581 16.672C11.6562 16.7325 11.4384 16.7648 11.2005 16.7648V18.7648C11.6226 18.7648 12.0347 18.7071 12.4328 18.5876L11.8581 16.672ZM8.33049 10.9098V9.7248H6.33049V10.9098H8.33049ZM7.33049 10.7248H12.4005V8.7248H7.33049V10.7248ZM11.4005 9.7248V10.9098H13.4005V9.7248H11.4005ZM12.4005 9.9098H7.33049V11.9098H12.4005V9.9098Z" fill="#141856"/>
<path d="M52.2975 17.6748V8.4798H48.6975V7.1748H57.3825V8.4798H53.7825V17.6748H52.2975ZM60.6157 17.6748V9.7248H61.9957V11.8848L61.8607 11.3448C62.0807 10.7948 62.4507 10.3748 62.9707 10.0848C63.4907 9.7948 64.1307 9.6498 64.8907 9.6498V11.0448C64.8307 11.0348 64.7707 11.0298 64.7107 11.0298C64.6607 11.0298 64.6107 11.0298 64.5607 11.0298C63.7907 11.0298 63.1807 11.2598 62.7307 11.7198C62.2807 12.1798 62.0557 12.8448 62.0557 13.7148V17.6748H60.6157ZM69.3328 20.6748C68.9528 20.6748 68.5828 20.6098 68.2228 20.4798C67.8628 20.3598 67.5528 20.1798 67.2928 19.9398L67.9078 18.8598C68.1078 19.0498 68.3278 19.1948 68.5678 19.2948C68.8078 19.3948 69.0628 19.4448 69.3328 19.4448C69.6828 19.4448 69.9728 19.3548 70.2028 19.1748C70.4328 18.9948 70.6478 18.6748 70.8478 18.2148L71.3428 17.1198L71.4928 16.9398L74.6128 9.7248H76.0228L72.1678 18.4698C71.9378 19.0298 71.6778 19.4698 71.3878 19.7898C71.1078 20.1098 70.7978 20.3348 70.4578 20.4648C70.1178 20.6048 69.7428 20.6748 69.3328 20.6748ZM71.2228 17.9298L67.5928 9.7248H69.0928L72.1828 16.8048L71.2228 17.9298Z" fill="#141856"/>
<path d="M52.2975 17.6748H51.2975C51.2975 18.2271 51.7452 18.6748 52.2975 18.6748V17.6748ZM52.2975 8.4798H53.2975C53.2975 7.92752 52.8497 7.4798 52.2975 7.4798V8.4798ZM48.6975 8.4798H47.6975C47.6975 9.03209 48.1452 9.4798 48.6975 9.4798V8.4798ZM48.6975 7.1748V6.1748C48.1452 6.1748 47.6975 6.62252 47.6975 7.1748H48.6975ZM57.3825 7.1748H58.3825C58.3825 6.62252 57.9347 6.1748 57.3825 6.1748V7.1748ZM57.3825 8.4798V9.4798C57.9347 9.4798 58.3825 9.03209 58.3825 8.4798H57.3825ZM53.7825 8.4798V7.4798C53.2302 7.4798 52.7825 7.92752 52.7825 8.4798H53.7825ZM53.7825 17.6748V18.6748C54.3347 18.6748 54.7825 18.2271 54.7825 17.6748H53.7825ZM53.2975 17.6748V8.4798H51.2975V17.6748H53.2975ZM52.2975 7.4798H48.6975V9.4798H52.2975V7.4798ZM49.6975 8.4798V7.1748H47.6975V8.4798H49.6975ZM48.6975 8.1748H57.3825V6.1748H48.6975V8.1748ZM56.3825 7.1748V8.4798H58.3825V7.1748H56.3825ZM57.3825 7.4798H53.7825V9.4798H57.3825V7.4798ZM52.7825 8.4798V17.6748H54.7825V8.4798H52.7825ZM53.7825 16.6748H52.2975V18.6748H53.7825V16.6748ZM60.6157 17.6748H59.6157C59.6157 18.2271 60.0634 18.6748 60.6157 18.6748V17.6748ZM60.6157 9.7248V8.7248C60.0634 8.7248 59.6157 9.17252 59.6157 9.7248H60.6157ZM61.9957 9.7248H62.9957C62.9957 9.17252 62.548 8.7248 61.9957 8.7248V9.7248ZM61.9957 11.8848L61.0256 12.1273C61.1481 12.6173 61.6167 12.939 62.1179 12.8773C62.6192 12.8156 62.9957 12.3898 62.9957 11.8848H61.9957ZM61.8607 11.3448L60.9323 10.9734C60.8542 11.1686 60.8396 11.3834 60.8906 11.5873L61.8607 11.3448ZM62.9707 10.0848L62.4837 9.21144L62.9707 10.0848ZM64.8907 9.6498H65.8907C65.8907 9.09752 65.443 8.6498 64.8907 8.6498V9.6498ZM64.8907 11.0448L64.7263 12.0312C65.0163 12.0795 65.3128 11.9978 65.5371 11.8078C65.7614 11.6178 65.8907 11.3388 65.8907 11.0448H64.8907ZM62.0557 17.6748V18.6748C62.608 18.6748 63.0557 18.2271 63.0557 17.6748H62.0557ZM61.6157 17.6748V9.7248H59.6157V17.6748H61.6157ZM60.6157 10.7248H61.9957V8.7248H60.6157V10.7248ZM60.9957 9.7248V11.8848H62.9957V9.7248H60.9957ZM62.9659 11.6423L62.8309 11.1023L60.8906 11.5873L61.0256 12.1273L62.9659 11.6423ZM62.7892 11.7162C62.9235 11.3804 63.137 11.1371 63.4578 10.9582L62.4837 9.21144C61.7644 9.61256 61.2379 10.2092 60.9323 10.9734L62.7892 11.7162ZM63.4578 10.9582C63.7932 10.7711 64.2551 10.6498 64.8907 10.6498V8.6498C64.0064 8.6498 63.1882 8.81851 62.4837 9.21144L63.4578 10.9582ZM63.8907 9.6498V11.0448H65.8907V9.6498H63.8907ZM65.0551 10.0584C64.9415 10.0395 64.8266 10.0298 64.7107 10.0298V12.0298C64.7149 12.0298 64.7199 12.0301 64.7263 12.0312L65.0551 10.0584ZM64.7107 10.0298C64.7106 10.0298 64.7105 10.0298 64.7104 10.0298C64.7103 10.0298 64.7102 10.0298 64.7101 10.0298C64.71 10.0298 64.71 10.0298 64.7099 10.0298C64.7098 10.0298 64.7097 10.0298 64.7096 10.0298C64.7095 10.0298 64.7094 10.0298 64.7093 10.0298C64.7092 10.0298 64.7091 10.0298 64.709 10.0298C64.7089 10.0298 64.7088 10.0298 64.7087 10.0298C64.7086 10.0298 64.7085 10.0298 64.7084 10.0298C64.7083 10.0298 64.7082 10.0298 64.7081 10.0298C64.708 10.0298 64.7079 10.0298 64.7078 10.0298C64.7077 10.0298 64.7076 10.0298 64.7075 10.0298C64.7074 10.0298 64.7073 10.0298 64.7072 10.0298C64.7071 10.0298 64.707 10.0298 64.7069 10.0298C64.7068 10.0298 64.7067 10.0298 64.7066 10.0298C64.7065 10.0298 64.7064 10.0298 64.7063 10.0298C64.7062 10.0298 64.7061 10.0298 64.706 10.0298C64.7059 10.0298 64.7059 10.0298 64.7058 10.0298C64.7057 10.0298 64.7056 10.0298 64.7055 10.0298C64.7054 10.0298 64.7053 10.0298 64.7052 10.0298C64.7051 10.0298 64.705 10.0298 64.7049 10.0298C64.7048 10.0298 64.7047 10.0298 64.7046 10.0298C64.7045 10.0298 64.7044 10.0298 64.7043 10.0298C64.7042 10.0298 64.7041 10.0298 64.704 10.0298C64.7039 10.0298 64.7038 10.0298 64.7037 10.0298C64.7036 10.0298 64.7035 10.0298 64.7034 10.0298C64.7033 10.0298 64.7032 10.0298 64.7031 10.0298C64.703 10.0298 64.7029 10.0298 64.7028 10.0298C64.7027 10.0298 64.7026 10.0298 64.7025 10.0298C64.7024 10.0298 64.7023 10.0298 64.7022 10.0298C64.7021 10.0298 64.702 10.0298 64.7019 10.0298C64.7018 10.0298 64.7017 10.0298 64.7017 10.0298C64.7016 10.0298 64.7015 10.0298 64.7014 10.0298C64.7013 10.0298 64.7012 10.0298 64.7011 10.0298C64.701 10.0298 64.7009 10.0298 64.7008 10.0298C64.7007 10.0298 64.7006 10.0298 64.7005 10.0298C64.7004 10.0298 64.7003 10.0298 64.7002 10.0298C64.7001 10.0298 64.7 10.0298 64.6999 10.0298C64.6998 10.0298 64.6997 10.0298 64.6996 10.0298C64.6995 10.0298 64.6994 10.0298 64.6993 10.0298C64.6992 10.0298 64.6991 10.0298 64.699 10.0298C64.6989 10.0298 64.6988 10.0298 64.6987 10.0298C64.6986 10.0298 64.6985 10.0298 64.6984 10.0298C64.6983 10.0298 64.6982 10.0298 64.6981 10.0298C64.698 10.0298 64.6979 10.0298 64.6978 10.0298C64.6977 10.0298 64.6976 10.0298 64.6975 10.0298C64.6975 10.0298 64.6974 10.0298 64.6973 10.0298C64.6972 10.0298 64.6971 10.0298 64.697 10.0298C64.6969 10.0298 64.6968 10.0298 64.6967 10.0298C64.6966 10.0298 64.6965 10.0298 64.6964 10.0298C64.6963 10.0298 64.6962 10.0298 64.6961 10.0298C64.696 10.0298 64.6959 10.0298 64.6958 10.0298C64.6957 10.0298 64.6956 10.0298 64.6955 10.0298C64.6954 10.0298 64.6953 10.0298 64.6952 10.0298C64.6951 10.0298 64.695 10.0298 64.6949 10.0298C64.6948 10.0298 64.6947 10.0298 64.6946 10.0298C64.6945 10.0298 64.6944 10.0298 64.6943 10.0298C64.6942 10.0298 64.6941 10.0298 64.694 10.0298C64.6939 10.0298 64.6938 10.0298 64.6937 10.0298C64.6936 10.0298 64.6935 10.0298 64.6934 10.0298C64.6933 10.0298 64.6933 10.0298 64.6932 10.0298C64.6931 10.0298 64.693 10.0298 64.6929 10.0298C64.6928 10.0298 64.6927 10.0298 64.6926 10.0298C64.6925 10.0298 64.6924 10.0298 64.6923 10.0298C64.6922 10.0298 64.6921 10.0298 64.692 10.0298C64.6919 10.0298 64.6918 10.0298 64.6917 10.0298C64.6916 10.0298 64.6915 10.0298 64.6914 10.0298C64.6913 10.0298 64.6912 10.0298 64.6911 10.0298C64.691 10.0298 64.6909 10.0298 64.6908 10.0298C64.6907 10.0298 64.6906 10.0298 64.6905 10.0298C64.6904 10.0298 64.6903 10.0298 64.6902 10.0298C64.6901 10.0298 64.69 10.0298 64.6899 10.0298C64.6898 10.0298 64.6897 10.0298 64.6896 10.0298C64.6895 10.0298 64.6894 10.0298 64.6893 10.0298C64.6892 10.0298 64.6891 10.0298 64.6891 10.0298C64.689 10.0298 64.6889 10.0298 64.6888 10.0298C64.6887 10.0298 64.6886 10.0298 64.6885 10.0298C64.6884 10.0298 64.6883 10.0298 64.6882 10.0298C64.6881 10.0298 64.688 10.0298 64.6879 10.0298C64.6878 10.0298 64.6877 10.0298 64.6876 10.0298C64.6875 10.0298 64.6874 10.0298 64.6873 10.0298C64.6872 10.0298 64.6871 10.0298 64.687 10.0298C64.6869 10.0298 64.6868 10.0298 64.6867 10.0298C64.6866 10.0298 64.6865 10.0298 64.6864 10.0298C64.6863 10.0298 64.6862 10.0298 64.6861 10.0298C64.686 10.0298 64.6859 10.0298 64.6858 10.0298C64.6857 10.0298 64.6856 10.0298 64.6855 10.0298C64.6854 10.0298 64.6853 10.0298 64.6852 10.0298C64.6851 10.0298 64.685 10.0298 64.685 10.0298C64.6849 10.0298 64.6848 10.0298 64.6847 10.0298C64.6846 10.0298 64.6845 10.0298 64.6844 10.0298C64.6843 10.0298 64.6842 10.0298 64.6841 10.0298C64.684 10.0298 64.6839 10.0298 64.6838 10.0298C64.6837 10.0298 64.6836 10.0298 64.6835 10.0298C64.6834 10.0298 64.6833 10.0298 64.6832 10.0298C64.6831 10.0298 64.683 10.0298 64.6829 10.0298C64.6828 10.0298 64.6827 10.0298 64.6826 10.0298C64.6825 10.0298 64.6824 10.0298 64.6823 10.0298C64.6822 10.0298 64.6821 10.0298 64.682 10.0298C64.6819 10.0298 64.6818 10.0298 64.6817 10.0298C64.6816 10.0298 64.6815 10.0298 64.6814 10.0298C64.6813 10.0298 64.6812 10.0298 64.6811 10.0298C64.681 10.0298 64.6809 10.0298 64.6808 10.0298C64.6808 10.0298 64.6807 10.0298 64.6806 10.0298C64.6805 10.0298 64.6804 10.0298 64.6803 10.0298C64.6802 10.0298 64.6801 10.0298 64.68 10.0298C64.6799 10.0298 64.6798 10.0298 64.6797 10.0298C64.6796 10.0298 64.6795 10.0298 64.6794 10.0298C64.6793 10.0298 64.6792 10.0298 64.6791 10.0298C64.679 10.0298 64.6789 10.0298 64.6788 10.0298C64.6787 10.0298 64.6786 10.0298 64.6785 10.0298C64.6784 10.0298 64.6783 10.0298 64.6782 10.0298C64.6781 10.0298 64.678 10.0298 64.6779 10.0298C64.6778 10.0298 64.6777 10.0298 64.6776 10.0298C64.6775 10.0298 64.6774 10.0298 64.6773 10.0298C64.6772 10.0298 64.6771 10.0298 64.677 10.0298C64.6769 10.0298 64.6768 10.0298 64.6767 10.0298C64.6767 10.0298 64.6766 10.0298 64.6765 10.0298C64.6764 10.0298 64.6763 10.0298 64.6762 10.0298C64.6761 10.0298 64.676 10.0298 64.6759 10.0298C64.6758 10.0298 64.6757 10.0298 64.6756 10.0298C64.6755 10.0298 64.6754 10.0298 64.6753 10.0298C64.6752 10.0298 64.6751 10.0298 64.675 10.0298C64.6749 10.0298 64.6748 10.0298 64.6747 10.0298C64.6746 10.0298 64.6745 10.0298 64.6744 10.0298C64.6743 10.0298 64.6742 10.0298 64.6741 10.0298C64.674 10.0298 64.6739 10.0298 64.6738 10.0298C64.6737 10.0298 64.6736 10.0298 64.6735 10.0298C64.6734 10.0298 64.6733 10.0298 64.6732 10.0298C64.6731 10.0298 64.673 10.0298 64.6729 10.0298C64.6728 10.0298 64.6727 10.0298 64.6726 10.0298C64.6725 10.0298 64.6725 10.0298 64.6724 10.0298C64.6723 10.0298 64.6722 10.0298 64.6721 10.0298C64.672 10.0298 64.6719 10.0298 64.6718 10.0298C64.6717 10.0298 64.6716 10.0298 64.6715 10.0298C64.6714 10.0298 64.6713 10.0298 64.6712 10.0298C64.6711 10.0298 64.671 10.0298 64.6709 10.0298C64.6708 10.0298 64.6707 10.0298 64.6706 10.0298C64.6705 10.0298 64.6704 10.0298 64.6703 10.0298C64.6702 10.0298 64.6701 10.0298 64.67 10.0298C64.6699 10.0298 64.6698 10.0298 64.6697 10.0298C64.6696 10.0298 64.6695 10.0298 64.6694 10.0298C64.6693 10.0298 64.6692 10.0298 64.6691 10.0298C64.669 10.0298 64.6689 10.0298 64.6688 10.0298C64.6687 10.0298 64.6686 10.0298 64.6685 10.0298C64.6684 10.0298 64.6684 10.0298 64.6683 10.0298C64.6682 10.0298 64.6681 10.0298 64.668 10.0298C64.6679 10.0298 64.6678 10.0298 64.6677 10.0298C64.6676 10.0298 64.6675 10.0298 64.6674 10.0298C64.6673 10.0298 64.6672 10.0298 64.6671 10.0298C64.667 10.0298 64.6669 10.0298 64.6668 10.0298C64.6667 10.0298 64.6666 10.0298 64.6665 10.0298C64.6664 10.0298 64.6663 10.0298 64.6662 10.0298C64.6661 10.0298 64.666 10.0298 64.6659 10.0298C64.6658 10.0298 64.6657 10.0298 64.6656 10.0298C64.6655 10.0298 64.6654 10.0298 64.6653 10.0298C64.6652 10.0298 64.6651 10.0298 64.665 10.0298C64.6649 10.0298 64.6648 10.0298 64.6647 10.0298C64.6646 10.0298 64.6645 10.0298 64.6644 10.0298C64.6643 10.0298 64.6642 10.0298 64.6642 10.0298C64.6641 10.0298 64.664 10.0298 64.6639 10.0298C64.6638 10.0298 64.6637 10.0298 64.6636 10.0298C64.6635 10.0298 64.6634 10.0298 64.6633 10.0298C64.6632 10.0298 64.6631 10.0298 64.663 10.0298C64.6629 10.0298 64.6628 10.0298 64.6627 10.0298C64.6626 10.0298 64.6625 10.0298 64.6624 10.0298C64.6623 10.0298 64.6622 10.0298 64.6621 10.0298C64.662 10.0298 64.6619 10.0298 64.6618 10.0298C64.6617 10.0298 64.6616 10.0298 64.6615 10.0298C64.6614 10.0298 64.6613 10.0298 64.6612 10.0298C64.6611 10.0298 64.661 10.0298 64.6609 10.0298C64.6608 10.0298 64.6607 10.0298 64.6606 10.0298C64.6605 10.0298 64.6604 10.0298 64.6603 10.0298C64.6602 10.0298 64.6601 10.0298 64.66 10.0298C64.66 10.0298 64.6599 10.0298 64.6598 10.0298C64.6597 10.0298 64.6596 10.0298 64.6595 10.0298C64.6594 10.0298 64.6593 10.0298 64.6592 10.0298C64.6591 10.0298 64.659 10.0298 64.6589 10.0298C64.6588 10.0298 64.6587 10.0298 64.6586 10.0298C64.6585 10.0298 64.6584 10.0298 64.6583 10.0298C64.6582 10.0298 64.6581 10.0298 64.658 10.0298C64.6579 10.0298 64.6578 10.0298 64.6577 10.0298C64.6576 10.0298 64.6575 10.0298 64.6574 10.0298C64.6573 10.0298 64.6572 10.0298 64.6571 10.0298C64.657 10.0298 64.6569 10.0298 64.6568 10.0298C64.6567 10.0298 64.6566 10.0298 64.6565 10.0298C64.6564 10.0298 64.6563 10.0298 64.6562 10.0298C64.6561 10.0298 64.656 10.0298 64.6559 10.0298C64.6558 10.0298 64.6558 10.0298 64.6557 10.0298C64.6556 10.0298 64.6555 10.0298 64.6554 10.0298C64.6553 10.0298 64.6552 10.0298 64.6551 10.0298C64.655 10.0298 64.6549 10.0298 64.6548 10.0298C64.6547 10.0298 64.6546 10.0298 64.6545 10.0298C64.6544 10.0298 64.6543 10.0298 64.6542 10.0298C64.6541 10.0298 64.654 10.0298 64.6539 10.0298C64.6538 10.0298 64.6537 10.0298 64.6536 10.0298C64.6535 10.0298 64.6534 10.0298 64.6533 10.0298C64.6532 10.0298 64.6531 10.0298 64.653 10.0298C64.6529 10.0298 64.6528 10.0298 64.6527 10.0298C64.6526 10.0298 64.6525 10.0298 64.6524 10.0298C64.6523 10.0298 64.6522 10.0298 64.6521 10.0298C64.652 10.0298 64.6519 10.0298 64.6518 10.0298C64.6517 10.0298 64.6517 10.0298 64.6516 10.0298C64.6515 10.0298 64.6514 10.0298 64.6513 10.0298C64.6512 10.0298 64.6511 10.0298 64.651 10.0298C64.6509 10.0298 64.6508 10.0298 64.6507 10.0298C64.6506 10.0298 64.6505 10.0298 64.6504 10.0298C64.6503 10.0298 64.6502 10.0298 64.6501 10.0298C64.65 10.0298 64.6499 10.0298 64.6498 10.0298C64.6497 10.0298 64.6496 10.0298 64.6495 10.0298C64.6494 10.0298 64.6493 10.0298 64.6492 10.0298C64.6491 10.0298 64.649 10.0298 64.6489 10.0298C64.6488 10.0298 64.6487 10.0298 64.6486 10.0298C64.6485 10.0298 64.6484 10.0298 64.6483 10.0298C64.6482 10.0298 64.6481 10.0298 64.648 10.0298C64.6479 10.0298 64.6478 10.0298 64.6477 10.0298C64.6476 10.0298 64.6475 10.0298 64.6475 10.0298C64.6474 10.0298 64.6473 10.0298 64.6472 10.0298C64.6471 10.0298 64.647 10.0298 64.6469 10.0298C64.6468 10.0298 64.6467 10.0298 64.6466 10.0298C64.6465 10.0298 64.6464 10.0298 64.6463 10.0298C64.6462 10.0298 64.6461 10.0298 64.646 10.0298C64.6459 10.0298 64.6458 10.0298 64.6457 10.0298C64.6456 10.0298 64.6455 10.0298 64.6454 10.0298C64.6453 10.0298 64.6452 10.0298 64.6451 10.0298C64.645 10.0298 64.6449 10.0298 64.6448 10.0298C64.6447 10.0298 64.6446 10.0298 64.6445 10.0298C64.6444 10.0298 64.6443 10.0298 64.6442 10.0298C64.6441 10.0298 64.644 10.0298 64.6439 10.0298C64.6438 10.0298 64.6437 10.0298 64.6436 10.0298C64.6435 10.0298 64.6434 10.0298 64.6434 10.0298C64.6433 10.0298 64.6432 10.0298 64.6431 10.0298C64.643 10.0298 64.6429 10.0298 64.6428 10.0298C64.6427 10.0298 64.6426 10.0298 64.6425 10.0298C64.6424 10.0298 64.6423 10.0298 64.6422 10.0298C64.6421 10.0298 64.642 10.0298 64.6419 10.0298C64.6418 10.0298 64.6417 10.0298 64.6416 10.0298C64.6415 10.0298 64.6414 10.0298 64.6413 10.0298C64.6412 10.0298 64.6411 10.0298 64.641 10.0298C64.6409 10.0298 64.6408 10.0298 64.6407 10.0298C64.6406 10.0298 64.6405 10.0298 64.6404 10.0298C64.6403 10.0298 64.6402 10.0298 64.6401 10.0298C64.64 10.0298 64.6399 10.0298 64.6398 10.0298C64.6397 10.0298 64.6396 10.0298 64.6395 10.0298C64.6394 10.0298 64.6393 10.0298 64.6392 10.0298C64.6392 10.0298 64.6391 10.0298 64.639 10.0298C64.6389 10.0298 64.6388 10.0298 64.6387 10.0298C64.6386 10.0298 64.6385 10.0298 64.6384 10.0298C64.6383 10.0298 64.6382 10.0298 64.6381 10.0298C64.638 10.0298 64.6379 10.0298 64.6378 10.0298C64.6377 10.0298 64.6376 10.0298 64.6375 10.0298C64.6374 10.0298 64.6373 10.0298 64.6372 10.0298C64.6371 10.0298 64.637 10.0298 64.6369 10.0298C64.6368 10.0298 64.6367 10.0298 64.6366 10.0298C64.6365 10.0298 64.6364 10.0298 64.6363 10.0298C64.6362 10.0298 64.6361 10.0298 64.636 10.0298C64.6359 10.0298 64.6358 10.0298 64.6357 10.0298C64.6356 10.0298 64.6355 10.0298 64.6354 10.0298C64.6353 10.0298 64.6352 10.0298 64.6351 10.0298C64.635 10.0298 64.635 10.0298 64.6349 10.0298C64.6348 10.0298 64.6347 10.0298 64.6346 10.0298C64.6345 10.0298 64.6344 10.0298 64.6343 10.0298C64.6342 10.0298 64.6341 10.0298 64.634 10.0298C64.6339 10.0298 64.6338 10.0298 64.6337 10.0298C64.6336 10.0298 64.6335 10.0298 64.6334 10.0298C64.6333 10.0298 64.6332 10.0298 64.6331 10.0298C64.633 10.0298 64.6329 10.0298 64.6328 10.0298C64.6327 10.0298 64.6326 10.0298 64.6325 10.0298C64.6324 10.0298 64.6323 10.0298 64.6322 10.0298C64.6321 10.0298 64.632 10.0298 64.6319 10.0298C64.6318 10.0298 64.6317 10.0298 64.6316 10.0298C64.6315 10.0298 64.6314 10.0298 64.6313 10.0298C64.6312 10.0298 64.6311 10.0298 64.631 10.0298C64.6309 10.0298 64.6308 10.0298 64.6308 10.0298C64.6307 10.0298 64.6306 10.0298 64.6305 10.0298C64.6304 10.0298 64.6303 10.0298 64.6302 10.0298C64.6301 10.0298 64.63 10.0298 64.6299 10.0298C64.6298 10.0298 64.6297 10.0298 64.6296 10.0298C64.6295 10.0298 64.6294 10.0298 64.6293 10.0298C64.6292 10.0298 64.6291 10.0298 64.629 10.0298C64.6289 10.0298 64.6288 10.0298 64.6287 10.0298C64.6286 10.0298 64.6285 10.0298 64.6284 10.0298C64.6283 10.0298 64.6282 10.0298 64.6281 10.0298C64.628 10.0298 64.6279 10.0298 64.6278 10.0298C64.6277 10.0298 64.6276 10.0298 64.6275 10.0298C64.6274 10.0298 64.6273 10.0298 64.6272 10.0298C64.6271 10.0298 64.627 10.0298 64.6269 10.0298C64.6268 10.0298 64.6267 10.0298 64.6266 10.0298C64.6266 10.0298 64.6265 10.0298 64.6264 10.0298C64.6263 10.0298 64.6262 10.0298 64.6261 10.0298C64.626 10.0298 64.6259 10.0298 64.6258 10.0298C64.6257 10.0298 64.6256 10.0298 64.6255 10.0298C64.6254 10.0298 64.6253 10.0298 64.6252 10.0298C64.6251 10.0298 64.625 10.0298 64.6249 10.0298C64.6248 10.0298 64.6247 10.0298 64.6246 10.0298C64.6245 10.0298 64.6244 10.0298 64.6243 10.0298C64.6242 10.0298 64.6241 10.0298 64.624 10.0298C64.6239 10.0298 64.6238 10.0298 64.6237 10.0298C64.6236 10.0298 64.6235 10.0298 64.6234 10.0298C64.6233 10.0298 64.6232 10.0298 64.6231 10.0298C64.623 10.0298 64.6229 10.0298 64.6228 10.0298C64.6227 10.0298 64.6226 10.0298 64.6225 10.0298C64.6225 10.0298 64.6224 10.0298 64.6223 10.0298C64.6222 10.0298 64.6221 10.0298 64.622 10.0298C64.6219 10.0298 64.6218 10.0298 64.6217 10.0298C64.6216 10.0298 64.6215 10.0298 64.6214 10.0298C64.6213 10.0298 64.6212 10.0298 64.6211 10.0298C64.621 10.0298 64.6209 10.0298 64.6208 10.0298C64.6207 10.0298 64.6206 10.0298 64.6205 10.0298C64.6204 10.0298 64.6203 10.0298 64.6202 10.0298C64.6201 10.0298 64.62 10.0298 64.6199 10.0298C64.6198 10.0298 64.6197 10.0298 64.6196 10.0298C64.6195 10.0298 64.6194 10.0298 64.6193 10.0298C64.6192 10.0298 64.6191 10.0298 64.619 10.0298C64.6189 10.0298 64.6188 10.0298 64.6187 10.0298C64.6186 10.0298 64.6185 10.0298 64.6184 10.0298C64.6183 10.0298 64.6183 10.0298 64.6182 10.0298C64.6181 10.0298 64.618 10.0298 64.6179 10.0298C64.6178 10.0298 64.6177 10.0298 64.6176 10.0298C64.6175 10.0298 64.6174 10.0298 64.6173 10.0298C64.6172 10.0298 64.6171 10.0298 64.617 10.0298C64.6169 10.0298 64.6168 10.0298 64.6167 10.0298C64.6166 10.0298 64.6165 10.0298 64.6164 10.0298C64.6163 10.0298 64.6162 10.0298 64.6161 10.0298C64.616 10.0298 64.6159 10.0298 64.6158 10.0298C64.6157 10.0298 64.6156 10.0298 64.6155 10.0298C64.6154 10.0298 64.6153 10.0298 64.6152 10.0298C64.6151 10.0298 64.615 10.0298 64.6149 10.0298C64.6148 10.0298 64.6147 10.0298 64.6146 10.0298C64.6145 10.0298 64.6144 10.0298 64.6143 10.0298C64.6142 10.0298 64.6142 10.0298 64.6141 10.0298C64.614 10.0298 64.6139 10.0298 64.6138 10.0298C64.6137 10.0298 64.6136 10.0298 64.6135 10.0298C64.6134 10.0298 64.6133 10.0298 64.6132 10.0298C64.6131 10.0298 64.613 10.0298 64.6129 10.0298C64.6128 10.0298 64.6127 10.0298 64.6126 10.0298C64.6125 10.0298 64.6124 10.0298 64.6123 10.0298C64.6122 10.0298 64.6121 10.0298 64.612 10.0298C64.6119 10.0298 64.6118 10.0298 64.6117 10.0298C64.6116 10.0298 64.6115 10.0298 64.6114 10.0298C64.6113 10.0298 64.6112 10.0298 64.6111 10.0298C64.611 10.0298 64.6109 10.0298 64.6108 10.0298C64.6107 10.0298 64.6106 10.0298 64.6105 10.0298C64.6104 10.0298 64.6103 10.0298 64.6102 10.0298C64.6101 10.0298 64.61 10.0298 64.61 10.0298C64.6099 10.0298 64.6098 10.0298 64.6097 10.0298C64.6096 10.0298 64.6095 10.0298 64.6094 10.0298C64.6093 10.0298 64.6092 10.0298 64.6091 10.0298C64.609 10.0298 64.6089 10.0298 64.6088 10.0298C64.6087 10.0298 64.6086 10.0298 64.6085 10.0298C64.6084 10.0298 64.6083 10.0298 64.6082 10.0298C64.6081 10.0298 64.608 10.0298 64.6079 10.0298C64.6078 10.0298 64.6077 10.0298 64.6076 10.0298C64.6075 10.0298 64.6074 10.0298 64.6073 10.0298C64.6072 10.0298 64.6071 10.0298 64.607 10.0298C64.6069 10.0298 64.6068 10.0298 64.6067 10.0298C64.6066 10.0298 64.6065 10.0298 64.6064 10.0298C64.6063 10.0298 64.6062 10.0298 64.6061 10.0298C64.606 10.0298 64.6059 10.0298 64.6059 10.0298C64.6058 10.0298 64.6057 10.0298 64.6056 10.0298C64.6055 10.0298 64.6054 10.0298 64.6053 10.0298C64.6052 10.0298 64.6051 10.0298 64.605 10.0298C64.6049 10.0298 64.6048 10.0298 64.6047 10.0298C64.6046 10.0298 64.6045 10.0298 64.6044 10.0298C64.6043 10.0298 64.6042 10.0298 64.6041 10.0298C64.604 10.0298 64.6039 10.0298 64.6038 10.0298C64.6037 10.0298 64.6036 10.0298 64.6035 10.0298C64.6034 10.0298 64.6033 10.0298 64.6032 10.0298C64.6031 10.0298 64.603 10.0298 64.6029 10.0298C64.6028 10.0298 64.6027 10.0298 64.6026 10.0298C64.6025 10.0298 64.6024 10.0298 64.6023 10.0298C64.6022 10.0298 64.6021 10.0298 64.602 10.0298C64.6019 10.0298 64.6018 10.0298 64.6017 10.0298C64.6017 10.0298 64.6016 10.0298 64.6015 10.0298C64.6014 10.0298 64.6013 10.0298 64.6012 10.0298C64.6011 10.0298 64.601 10.0298 64.6009 10.0298C64.6008 10.0298 64.6007 10.0298 64.6006 10.0298C64.6005 10.0298 64.6004 10.0298 64.6003 10.0298C64.6002 10.0298 64.6001 10.0298 64.6 10.0298C64.5999 10.0298 64.5998 10.0298 64.5997 10.0298C64.5996 10.0298 64.5995 10.0298 64.5994 10.0298C64.5993 10.0298 64.5992 10.0298 64.5991 10.0298C64.599 10.0298 64.5989 10.0298 64.5988 10.0298C64.5987 10.0298 64.5986 10.0298 64.5985 10.0298C64.5984 10.0298 64.5983 10.0298 64.5982 10.0298C64.5981 10.0298 64.598 10.0298 64.5979 10.0298C64.5978 10.0298 64.5977 10.0298 64.5976 10.0298C64.5975 10.0298 64.5975 10.0298 64.5974 10.0298C64.5973 10.0298 64.5972 10.0298 64.5971 10.0298C64.597 10.0298 64.5969 10.0298 64.5968 10.0298C64.5967 10.0298 64.5966 10.0298 64.5965 10.0298C64.5964 10.0298 64.5963 10.0298 64.5962 10.0298C64.5961 10.0298 64.596 10.0298 64.5959 10.0298C64.5958 10.0298 64.5957 10.0298 64.5956 10.0298C64.5955 10.0298 64.5954 10.0298 64.5953 10.0298C64.5952 10.0298 64.5951 10.0298 64.595 10.0298C64.5949 10.0298 64.5948 10.0298 64.5947 10.0298C64.5946 10.0298 64.5945 10.0298 64.5944 10.0298C64.5943 10.0298 64.5942 10.0298 64.5941 10.0298C64.594 10.0298 64.5939 10.0298 64.5938 10.0298C64.5937 10.0298 64.5936 10.0298 64.5935 10.0298C64.5934 10.0298 64.5933 10.0298 64.5933 10.0298C64.5932 10.0298 64.5931 10.0298 64.593 10.0298C64.5929 10.0298 64.5928 10.0298 64.5927 10.0298C64.5926 10.0298 64.5925 10.0298 64.5924 10.0298C64.5923 10.0298 64.5922 10.0298 64.5921 10.0298C64.592 10.0298 64.5919 10.0298 64.5918 10.0298C64.5917 10.0298 64.5916 10.0298 64.5915 10.0298C64.5914 10.0298 64.5913 10.0298 64.5912 10.0298C64.5911 10.0298 64.591 10.0298 64.5909 10.0298C64.5908 10.0298 64.5907 10.0298 64.5906 10.0298C64.5905 10.0298 64.5904 10.0298 64.5903 10.0298C64.5902 10.0298 64.5901 10.0298 64.59 10.0298C64.5899 10.0298 64.5898 10.0298 64.5897 10.0298C64.5896 10.0298 64.5895 10.0298 64.5894 10.0298C64.5893 10.0298 64.5892 10.0298 64.5892 10.0298C64.5891 10.0298 64.589 10.0298 64.5889 10.0298C64.5888 10.0298 64.5887 10.0298 64.5886 10.0298C64.5885 10.0298 64.5884 10.0298 64.5883 10.0298C64.5882 10.0298 64.5881 10.0298 64.588 10.0298C64.5879 10.0298 64.5878 10.0298 64.5877 10.0298C64.5876 10.0298 64.5875 10.0298 64.5874 10.0298C64.5873 10.0298 64.5872 10.0298 64.5871 10.0298C64.587 10.0298 64.5869 10.0298 64.5868 10.0298C64.5867 10.0298 64.5866 10.0298 64.5865 10.0298C64.5864 10.0298 64.5863 10.0298 64.5862 10.0298C64.5861 10.0298 64.586 10.0298 64.5859 10.0298C64.5858 10.0298 64.5857 10.0298 64.5856 10.0298C64.5855 10.0298 64.5854 10.0298 64.5853 10.0298C64.5852 10.0298 64.5851 10.0298 64.585 10.0298C64.585 10.0298 64.5849 10.0298 64.5848 10.0298C64.5847 10.0298 64.5846 10.0298 64.5845 10.0298C64.5844 10.0298 64.5843 10.0298 64.5842 10.0298C64.5841 10.0298 64.584 10.0298 64.5839 10.0298C64.5838 10.0298 64.5837 10.0298 64.5836 10.0298C64.5835 10.0298 64.5834 10.0298 64.5833 10.0298C64.5832 10.0298 64.5831 10.0298 64.583 10.0298C64.5829 10.0298 64.5828 10.0298 64.5827 10.0298C64.5826 10.0298 64.5825 10.0298 64.5824 10.0298C64.5823 10.0298 64.5822 10.0298 64.5821 10.0298C64.582 10.0298 64.5819 10.0298 64.5818 10.0298C64.5817 10.0298 64.5816 10.0298 64.5815 10.0298C64.5814 10.0298 64.5813 10.0298 64.5812 10.0298C64.5811 10.0298 64.581 10.0298 64.5809 10.0298C64.5809 10.0298 64.5808 10.0298 64.5807 10.0298C64.5806 10.0298 64.5805 10.0298 64.5804 10.0298C64.5803 10.0298 64.5802 10.0298 64.5801 10.0298C64.58 10.0298 64.5799 10.0298 64.5798 10.0298C64.5797 10.0298 64.5796 10.0298 64.5795 10.0298C64.5794 10.0298 64.5793 10.0298 64.5792 10.0298C64.5791 10.0298 64.579 10.0298 64.5789 10.0298C64.5788 10.0298 64.5787 10.0298 64.5786 10.0298C64.5785 10.0298 64.5784 10.0298 64.5783 10.0298C64.5782 10.0298 64.5781 10.0298 64.578 10.0298C64.5779 10.0298 64.5778 10.0298 64.5777 10.0298C64.5776 10.0298 64.5775 10.0298 64.5774 10.0298C64.5773 10.0298 64.5772 10.0298 64.5771 10.0298C64.577 10.0298 64.5769 10.0298 64.5768 10.0298C64.5767 10.0298 64.5767 10.0298 64.5766 10.0298C64.5765 10.0298 64.5764 10.0298 64.5763 10.0298C64.5762 10.0298 64.5761 10.0298 64.576 10.0298C64.5759 10.0298 64.5758 10.0298 64.5757 10.0298C64.5756 10.0298 64.5755 10.0298 64.5754 10.0298C64.5753 10.0298 64.5752 10.0298 64.5751 10.0298C64.575 10.0298 64.5749 10.0298 64.5748 10.0298C64.5747 10.0298 64.5746 10.0298 64.5745 10.0298C64.5744 10.0298 64.5743 10.0298 64.5742 10.0298C64.5741 10.0298 64.574 10.0298 64.5739 10.0298C64.5738 10.0298 64.5737 10.0298 64.5736 10.0298C64.5735 10.0298 64.5734 10.0298 64.5733 10.0298C64.5732 10.0298 64.5731 10.0298 64.573 10.0298C64.5729 10.0298 64.5728 10.0298 64.5727 10.0298C64.5726 10.0298 64.5725 10.0298 64.5725 10.0298C64.5724 10.0298 64.5723 10.0298 64.5722 10.0298C64.5721 10.0298 64.572 10.0298 64.5719 10.0298C64.5718 10.0298 64.5717 10.0298 64.5716 10.0298C64.5715 10.0298 64.5714 10.0298 64.5713 10.0298C64.5712 10.0298 64.5711 10.0298 64.571 10.0298C64.5709 10.0298 64.5708 10.0298 64.5707 10.0298C64.5706 10.0298 64.5705 10.0298 64.5704 10.0298C64.5703 10.0298 64.5702 10.0298 64.5701 10.0298C64.57 10.0298 64.5699 10.0298 64.5698 10.0298C64.5697 10.0298 64.5696 10.0298 64.5695 10.0298C64.5694 10.0298 64.5693 10.0298 64.5692 10.0298C64.5691 10.0298 64.569 10.0298 64.5689 10.0298C64.5688 10.0298 64.5687 10.0298 64.5686 10.0298C64.5685 10.0298 64.5684 10.0298 64.5683 10.0298C64.5683 10.0298 64.5682 10.0298 64.5681 10.0298C64.568 10.0298 64.5679 10.0298 64.5678 10.0298C64.5677 10.0298 64.5676 10.0298 64.5675 10.0298C64.5674 10.0298 64.5673 10.0298 64.5672 10.0298C64.5671 10.0298 64.567 10.0298 64.5669 10.0298C64.5668 10.0298 64.5667 10.0298 64.5666 10.0298C64.5665 10.0298 64.5664 10.0298 64.5663 10.0298C64.5662 10.0298 64.5661 10.0298 64.566 10.0298C64.5659 10.0298 64.5658 10.0298 64.5657 10.0298C64.5656 10.0298 64.5655 10.0298 64.5654 10.0298C64.5653 10.0298 64.5652 10.0298 64.5651 10.0298C64.565 10.0298 64.5649 10.0298 64.5648 10.0298C64.5647 10.0298 64.5646 10.0298 64.5645 10.0298C64.5644 10.0298 64.5643 10.0298 64.5642 10.0298C64.5641 10.0298 64.5641 10.0298 64.564 10.0298C64.5639 10.0298 64.5638 10.0298 64.5637 10.0298C64.5636 10.0298 64.5635 10.0298 64.5634 10.0298C64.5633 10.0298 64.5632 10.0298 64.5631 10.0298C64.563 10.0298 64.5629 10.0298 64.5628 10.0298C64.5627 10.0298 64.5626 10.0298 64.5625 10.0298C64.5624 10.0298 64.5623 10.0298 64.5622 10.0298C64.5621 10.0298 64.562 10.0298 64.5619 10.0298C64.5618 10.0298 64.5617 10.0298 64.5616 10.0298C64.5615 10.0298 64.5614 10.0298 64.5613 10.0298C64.5612 10.0298 64.5611 10.0298 64.561 10.0298C64.5609 10.0298 64.5608 10.0298 64.5607 10.0298V12.0298C64.5608 12.0298 64.5609 12.0298 64.561 12.0298C64.5611 12.0298 64.5612 12.0298 64.5613 12.0298C64.5614 12.0298 64.5615 12.0298 64.5616 12.0298C64.5617 12.0298 64.5618 12.0298 64.5619 12.0298C64.562 12.0298 64.5621 12.0298 64.5622 12.0298C64.5623 12.0298 64.5624 12.0298 64.5625 12.0298C64.5626 12.0298 64.5627 12.0298 64.5628 12.0298C64.5629 12.0298 64.563 12.0298 64.5631 12.0298C64.5632 12.0298 64.5633 12.0298 64.5634 12.0298C64.5635 12.0298 64.5636 12.0298 64.5637 12.0298C64.5638 12.0298 64.5639 12.0298 64.564 12.0298C64.5641 12.0298 64.5641 12.0298 64.5642 12.0298C64.5643 12.0298 64.5644 12.0298 64.5645 12.0298C64.5646 12.0298 64.5647 12.0298 64.5648 12.0298C64.5649 12.0298 64.565 12.0298 64.5651 12.0298C64.5652 12.0298 64.5653 12.0298 64.5654 12.0298C64.5655 12.0298 64.5656 12.0298 64.5657 12.0298C64.5658 12.0298 64.5659 12.0298 64.566 12.0298C64.5661 12.0298 64.5662 12.0298 64.5663 12.0298C64.5664 12.0298 64.5665 12.0298 64.5666 12.0298C64.5667 12.0298 64.5668 12.0298 64.5669 12.0298C64.567 12.0298 64.5671 12.0298 64.5672 12.0298C64.5673 12.0298 64.5674 12.0298 64.5675 12.0298C64.5676 12.0298 64.5677 12.0298 64.5678 12.0298C64.5679 12.0298 64.568 12.0298 64.5681 12.0298C64.5682 12.0298 64.5683 12.0298 64.5683 12.0298C64.5684 12.0298 64.5685 12.0298 64.5686 12.0298C64.5687 12.0298 64.5688 12.0298 64.5689 12.0298C64.569 12.0298 64.5691 12.0298 64.5692 12.0298C64.5693 12.0298 64.5694 12.0298 64.5695 12.0298C64.5696 12.0298 64.5697 12.0298 64.5698 12.0298C64.5699 12.0298 64.57 12.0298 64.5701 12.0298C64.5702 12.0298 64.5703 12.0298 64.5704 12.0298C64.5705 12.0298 64.5706 12.0298 64.5707 12.0298C64.5708 12.0298 64.5709 12.0298 64.571 12.0298C64.5711 12.0298 64.5712 12.0298 64.5713 12.0298C64.5714 12.0298 64.5715 12.0298 64.5716 12.0298C64.5717 12.0298 64.5718 12.0298 64.5719 12.0298C64.572 12.0298 64.5721 12.0298 64.5722 12.0298C64.5723 12.0298 64.5724 12.0298 64.5725 12.0298C64.5725 12.0298 64.5726 12.0298 64.5727 12.0298C64.5728 12.0298 64.5729 12.0298 64.573 12.0298C64.5731 12.0298 64.5732 12.0298 64.5733 12.0298C64.5734 12.0298 64.5735 12.0298 64.5736 12.0298C64.5737 12.0298 64.5738 12.0298 64.5739 12.0298C64.574 12.0298 64.5741 12.0298 64.5742 12.0298C64.5743 12.0298 64.5744 12.0298 64.5745 12.0298C64.5746 12.0298 64.5747 12.0298 64.5748 12.0298C64.5749 12.0298 64.575 12.0298 64.5751 12.0298C64.5752 12.0298 64.5753 12.0298 64.5754 12.0298C64.5755 12.0298 64.5756 12.0298 64.5757 12.0298C64.5758 12.0298 64.5759 12.0298 64.576 12.0298C64.5761 12.0298 64.5762 12.0298 64.5763 12.0298C64.5764 12.0298 64.5765 12.0298 64.5766 12.0298C64.5767 12.0298 64.5767 12.0298 64.5768 12.0298C64.5769 12.0298 64.577 12.0298 64.5771 12.0298C64.5772 12.0298 64.5773 12.0298 64.5774 12.0298C64.5775 12.0298 64.5776 12.0298 64.5777 12.0298C64.5778 12.0298 64.5779 12.0298 64.578 12.0298C64.5781 12.0298 64.5782 12.0298 64.5783 12.0298C64.5784 12.0298 64.5785 12.0298 64.5786 12.0298C64.5787 12.0298 64.5788 12.0298 64.5789 12.0298C64.579 12.0298 64.5791 12.0298 64.5792 12.0298C64.5793 12.0298 64.5794 12.0298 64.5795 12.0298C64.5796 12.0298 64.5797 12.0298 64.5798 12.0298C64.5799 12.0298 64.58 12.0298 64.5801 12.0298C64.5802 12.0298 64.5803 12.0298 64.5804 12.0298C64.5805 12.0298 64.5806 12.0298 64.5807 12.0298C64.5808 12.0298 64.5809 12.0298 64.5809 12.0298C64.581 12.0298 64.5811 12.0298 64.5812 12.0298C64.5813 12.0298 64.5814 12.0298 64.5815 12.0298C64.5816 12.0298 64.5817 12.0298 64.5818 12.0298C64.5819 12.0298 64.582 12.0298 64.5821 12.0298C64.5822 12.0298 64.5823 12.0298 64.5824 12.0298C64.5825 12.0298 64.5826 12.0298 64.5827 12.0298C64.5828 12.0298 64.5829 12.0298 64.583 12.0298C64.5831 12.0298 64.5832 12.0298 64.5833 12.0298C64.5834 12.0298 64.5835 12.0298 64.5836 12.0298C64.5837 12.0298 64.5838 12.0298 64.5839 12.0298C64.584 12.0298 64.5841 12.0298 64.5842 12.0298C64.5843 12.0298 64.5844 12.0298 64.5845 12.0298C64.5846 12.0298 64.5847 12.0298 64.5848 12.0298C64.5849 12.0298 64.585 12.0298 64.585 12.0298C64.5851 12.0298 64.5852 12.0298 64.5853 12.0298C64.5854 12.0298 64.5855 12.0298 64.5856 12.0298C64.5857 12.0298 64.5858 12.0298 64.5859 12.0298C64.586 12.0298 64.5861 12.0298 64.5862 12.0298C64.5863 12.0298 64.5864 12.0298 64.5865 12.0298C64.5866 12.0298 64.5867 12.0298 64.5868 12.0298C64.5869 12.0298 64.587 12.0298 64.5871 12.0298C64.5872 12.0298 64.5873 12.0298 64.5874 12.0298C64.5875 12.0298 64.5876 12.0298 64.5877 12.0298C64.5878 12.0298 64.5879 12.0298 64.588 12.0298C64.5881 12.0298 64.5882 12.0298 64.5883 12.0298C64.5884 12.0298 64.5885 12.0298 64.5886 12.0298C64.5887 12.0298 64.5888 12.0298 64.5889 12.0298C64.589 12.0298 64.5891 12.0298 64.5892 12.0298C64.5892 12.0298 64.5893 12.0298 64.5894 12.0298C64.5895 12.0298 64.5896 12.0298 64.5897 12.0298C64.5898 12.0298 64.5899 12.0298 64.59 12.0298C64.5901 12.0298 64.5902 12.0298 64.5903 12.0298C64.5904 12.0298 64.5905 12.0298 64.5906 12.0298C64.5907 12.0298 64.5908 12.0298 64.5909 12.0298C64.591 12.0298 64.5911 12.0298 64.5912 12.0298C64.5913 12.0298 64.5914 12.0298 64.5915 12.0298C64.5916 12.0298 64.5917 12.0298 64.5918 12.0298C64.5919 12.0298 64.592 12.0298 64.5921 12.0298C64.5922 12.0298 64.5923 12.0298 64.5924 12.0298C64.5925 12.0298 64.5926 12.0298 64.5927 12.0298C64.5928 12.0298 64.5929 12.0298 64.593 12.0298C64.5931 12.0298 64.5932 12.0298 64.5933 12.0298C64.5933 12.0298 64.5934 12.0298 64.5935 12.0298C64.5936 12.0298 64.5937 12.0298 64.5938 12.0298C64.5939 12.0298 64.594 12.0298 64.5941 12.0298C64.5942 12.0298 64.5943 12.0298 64.5944 12.0298C64.5945 12.0298 64.5946 12.0298 64.5947 12.0298C64.5948 12.0298 64.5949 12.0298 64.595 12.0298C64.5951 12.0298 64.5952 12.0298 64.5953 12.0298C64.5954 12.0298 64.5955 12.0298 64.5956 12.0298C64.5957 12.0298 64.5958 12.0298 64.5959 12.0298C64.596 12.0298 64.5961 12.0298 64.5962 12.0298C64.5963 12.0298 64.5964 12.0298 64.5965 12.0298C64.5966 12.0298 64.5967 12.0298 64.5968 12.0298C64.5969 12.0298 64.597 12.0298 64.5971 12.0298C64.5972 12.0298 64.5973 12.0298 64.5974 12.0298C64.5975 12.0298 64.5975 12.0298 64.5976 12.0298C64.5977 12.0298 64.5978 12.0298 64.5979 12.0298C64.598 12.0298 64.5981 12.0298 64.5982 12.0298C64.5983 12.0298 64.5984 12.0298 64.5985 12.0298C64.5986 12.0298 64.5987 12.0298 64.5988 12.0298C64.5989 12.0298 64.599 12.0298 64.5991 12.0298C64.5992 12.0298 64.5993 12.0298 64.5994 12.0298C64.5995 12.0298 64.5996 12.0298 64.5997 12.0298C64.5998 12.0298 64.5999 12.0298 64.6 12.0298C64.6001 12.0298 64.6002 12.0298 64.6003 12.0298C64.6004 12.0298 64.6005 12.0298 64.6006 12.0298C64.6007 12.0298 64.6008 12.0298 64.6009 12.0298C64.601 12.0298 64.6011 12.0298 64.6012 12.0298C64.6013 12.0298 64.6014 12.0298 64.6015 12.0298C64.6016 12.0298 64.6017 12.0298 64.6017 12.0298C64.6018 12.0298 64.6019 12.0298 64.602 12.0298C64.6021 12.0298 64.6022 12.0298 64.6023 12.0298C64.6024 12.0298 64.6025 12.0298 64.6026 12.0298C64.6027 12.0298 64.6028 12.0298 64.6029 12.0298C64.603 12.0298 64.6031 12.0298 64.6032 12.0298C64.6033 12.0298 64.6034 12.0298 64.6035 12.0298C64.6036 12.0298 64.6037 12.0298 64.6038 12.0298C64.6039 12.0298 64.604 12.0298 64.6041 12.0298C64.6042 12.0298 64.6043 12.0298 64.6044 12.0298C64.6045 12.0298 64.6046 12.0298 64.6047 12.0298C64.6048 12.0298 64.6049 12.0298 64.605 12.0298C64.6051 12.0298 64.6052 12.0298 64.6053 12.0298C64.6054 12.0298 64.6055 12.0298 64.6056 12.0298C64.6057 12.0298 64.6058 12.0298 64.6059 12.0298C64.6059 12.0298 64.606 12.0298 64.6061 12.0298C64.6062 12.0298 64.6063 12.0298 64.6064 12.0298C64.6065 12.0298 64.6066 12.0298 64.6067 12.0298C64.6068 12.0298 64.6069 12.0298 64.607 12.0298C64.6071 12.0298 64.6072 12.0298 64.6073 12.0298C64.6074 12.0298 64.6075 12.0298 64.6076 12.0298C64.6077 12.0298 64.6078 12.0298 64.6079 12.0298C64.608 12.0298 64.6081 12.0298 64.6082 12.0298C64.6083 12.0298 64.6084 12.0298 64.6085 12.0298C64.6086 12.0298 64.6087 12.0298 64.6088 12.0298C64.6089 12.0298 64.609 12.0298 64.6091 12.0298C64.6092 12.0298 64.6093 12.0298 64.6094 12.0298C64.6095 12.0298 64.6096 12.0298 64.6097 12.0298C64.6098 12.0298 64.6099 12.0298 64.61 12.0298C64.61 12.0298 64.6101 12.0298 64.6102 12.0298C64.6103 12.0298 64.6104 12.0298 64.6105 12.0298C64.6106 12.0298 64.6107 12.0298 64.6108 12.0298C64.6109 12.0298 64.611 12.0298 64.6111 12.0298C64.6112 12.0298 64.6113 12.0298 64.6114 12.0298C64.6115 12.0298 64.6116 12.0298 64.6117 12.0298C64.6118 12.0298 64.6119 12.0298 64.612 12.0298C64.6121 12.0298 64.6122 12.0298 64.6123 12.0298C64.6124 12.0298 64.6125 12.0298 64.6126 12.0298C64.6127 12.0298 64.6128 12.0298 64.6129 12.0298C64.613 12.0298 64.6131 12.0298 64.6132 12.0298C64.6133 12.0298 64.6134 12.0298 64.6135 12.0298C64.6136 12.0298 64.6137 12.0298 64.6138 12.0298C64.6139 12.0298 64.614 12.0298 64.6141 12.0298C64.6142 12.0298 64.6142 12.0298 64.6143 12.0298C64.6144 12.0298 64.6145 12.0298 64.6146 12.0298C64.6147 12.0298 64.6148 12.0298 64.6149 12.0298C64.615 12.0298 64.6151 12.0298 64.6152 12.0298C64.6153 12.0298 64.6154 12.0298 64.6155 12.0298C64.6156 12.0298 64.6157 12.0298 64.6158 12.0298C64.6159 12.0298 64.616 12.0298 64.6161 12.0298C64.6162 12.0298 64.6163 12.0298 64.6164 12.0298C64.6165 12.0298 64.6166 12.0298 64.6167 12.0298C64.6168 12.0298 64.6169 12.0298 64.617 12.0298C64.6171 12.0298 64.6172 12.0298 64.6173 12.0298C64.6174 12.0298 64.6175 12.0298 64.6176 12.0298C64.6177 12.0298 64.6178 12.0298 64.6179 12.0298C64.618 12.0298 64.6181 12.0298 64.6182 12.0298C64.6183 12.0298 64.6183 12.0298 64.6184 12.0298C64.6185 12.0298 64.6186 12.0298 64.6187 12.0298C64.6188 12.0298 64.6189 12.0298 64.619 12.0298C64.6191 12.0298 64.6192 12.0298 64.6193 12.0298C64.6194 12.0298 64.6195 12.0298 64.6196 12.0298C64.6197 12.0298 64.6198 12.0298 64.6199 12.0298C64.62 12.0298 64.6201 12.0298 64.6202 12.0298C64.6203 12.0298 64.6204 12.0298 64.6205 12.0298C64.6206 12.0298 64.6207 12.0298 64.6208 12.0298C64.6209 12.0298 64.621 12.0298 64.6211 12.0298C64.6212 12.0298 64.6213 12.0298 64.6214 12.0298C64.6215 12.0298 64.6216 12.0298 64.6217 12.0298C64.6218 12.0298 64.6219 12.0298 64.622 12.0298C64.6221 12.0298 64.6222 12.0298 64.6223 12.0298C64.6224 12.0298 64.6225 12.0298 64.6225 12.0298C64.6226 12.0298 64.6227 12.0298 64.6228 12.0298C64.6229 12.0298 64.623 12.0298 64.6231 12.0298C64.6232 12.0298 64.6233 12.0298 64.6234 12.0298C64.6235 12.0298 64.6236 12.0298 64.6237 12.0298C64.6238 12.0298 64.6239 12.0298 64.624 12.0298C64.6241 12.0298 64.6242 12.0298 64.6243 12.0298C64.6244 12.0298 64.6245 12.0298 64.6246 12.0298C64.6247 12.0298 64.6248 12.0298 64.6249 12.0298C64.625 12.0298 64.6251 12.0298 64.6252 12.0298C64.6253 12.0298 64.6254 12.0298 64.6255 12.0298C64.6256 12.0298 64.6257 12.0298 64.6258 12.0298C64.6259 12.0298 64.626 12.0298 64.6261 12.0298C64.6262 12.0298 64.6263 12.0298 64.6264 12.0298C64.6265 12.0298 64.6266 12.0298 64.6266 12.0298C64.6267 12.0298 64.6268 12.0298 64.6269 12.0298C64.627 12.0298 64.6271 12.0298 64.6272 12.0298C64.6273 12.0298 64.6274 12.0298 64.6275 12.0298C64.6276 12.0298 64.6277 12.0298 64.6278 12.0298C64.6279 12.0298 64.628 12.0298 64.6281 12.0298C64.6282 12.0298 64.6283 12.0298 64.6284 12.0298C64.6285 12.0298 64.6286 12.0298 64.6287 12.0298C64.6288 12.0298 64.6289 12.0298 64.629 12.0298C64.6291 12.0298 64.6292 12.0298 64.6293 12.0298C64.6294 12.0298 64.6295 12.0298 64.6296 12.0298C64.6297 12.0298 64.6298 12.0298 64.6299 12.0298C64.63 12.0298 64.6301 12.0298 64.6302 12.0298C64.6303 12.0298 64.6304 12.0298 64.6305 12.0298C64.6306 12.0298 64.6307 12.0298 64.6308 12.0298C64.6308 12.0298 64.6309 12.0298 64.631 12.0298C64.6311 12.0298 64.6312 12.0298 64.6313 12.0298C64.6314 12.0298 64.6315 12.0298 64.6316 12.0298C64.6317 12.0298 64.6318 12.0298 64.6319 12.0298C64.632 12.0298 64.6321 12.0298 64.6322 12.0298C64.6323 12.0298 64.6324 12.0298 64.6325 12.0298C64.6326 12.0298 64.6327 12.0298 64.6328 12.0298C64.6329 12.0298 64.633 12.0298 64.6331 12.0298C64.6332 12.0298 64.6333 12.0298 64.6334 12.0298C64.6335 12.0298 64.6336 12.0298 64.6337 12.0298C64.6338 12.0298 64.6339 12.0298 64.634 12.0298C64.6341 12.0298 64.6342 12.0298 64.6343 12.0298C64.6344 12.0298 64.6345 12.0298 64.6346 12.0298C64.6347 12.0298 64.6348 12.0298 64.6349 12.0298C64.635 12.0298 64.635 12.0298 64.6351 12.0298C64.6352 12.0298 64.6353 12.0298 64.6354 12.0298C64.6355 12.0298 64.6356 12.0298 64.6357 12.0298C64.6358 12.0298 64.6359 12.0298 64.636 12.0298C64.6361 12.0298 64.6362 12.0298 64.6363 12.0298C64.6364 12.0298 64.6365 12.0298 64.6366 12.0298C64.6367 12.0298 64.6368 12.0298 64.6369 12.0298C64.637 12.0298 64.6371 12.0298 64.6372 12.0298C64.6373 12.0298 64.6374 12.0298 64.6375 12.0298C64.6376 12.0298 64.6377 12.0298 64.6378 12.0298C64.6379 12.0298 64.638 12.0298 64.6381 12.0298C64.6382 12.0298 64.6383 12.0298 64.6384 12.0298C64.6385 12.0298 64.6386 12.0298 64.6387 12.0298C64.6388 12.0298 64.6389 12.0298 64.639 12.0298C64.6391 12.0298 64.6392 12.0298 64.6392 12.0298C64.6393 12.0298 64.6394 12.0298 64.6395 12.0298C64.6396 12.0298 64.6397 12.0298 64.6398 12.0298C64.6399 12.0298 64.64 12.0298 64.6401 12.0298C64.6402 12.0298 64.6403 12.0298 64.6404 12.0298C64.6405 12.0298 64.6406 12.0298 64.6407 12.0298C64.6408 12.0298 64.6409 12.0298 64.641 12.0298C64.6411 12.0298 64.6412 12.0298 64.6413 12.0298C64.6414 12.0298 64.6415 12.0298 64.6416 12.0298C64.6417 12.0298 64.6418 12.0298 64.6419 12.0298C64.642 12.0298 64.6421 12.0298 64.6422 12.0298C64.6423 12.0298 64.6424 12.0298 64.6425 12.0298C64.6426 12.0298 64.6427 12.0298 64.6428 12.0298C64.6429 12.0298 64.643 12.0298 64.6431 12.0298C64.6432 12.0298 64.6433 12.0298 64.6434 12.0298C64.6434 12.0298 64.6435 12.0298 64.6436 12.0298C64.6437 12.0298 64.6438 12.0298 64.6439 12.0298C64.644 12.0298 64.6441 12.0298 64.6442 12.0298C64.6443 12.0298 64.6444 12.0298 64.6445 12.0298C64.6446 12.0298 64.6447 12.0298 64.6448 12.0298C64.6449 12.0298 64.645 12.0298 64.6451 12.0298C64.6452 12.0298 64.6453 12.0298 64.6454 12.0298C64.6455 12.0298 64.6456 12.0298 64.6457 12.0298C64.6458 12.0298 64.6459 12.0298 64.646 12.0298C64.6461 12.0298 64.6462 12.0298 64.6463 12.0298C64.6464 12.0298 64.6465 12.0298 64.6466 12.0298C64.6467 12.0298 64.6468 12.0298 64.6469 12.0298C64.647 12.0298 64.6471 12.0298 64.6472 12.0298C64.6473 12.0298 64.6474 12.0298 64.6475 12.0298C64.6475 12.0298 64.6476 12.0298 64.6477 12.0298C64.6478 12.0298 64.6479 12.0298 64.648 12.0298C64.6481 12.0298 64.6482 12.0298 64.6483 12.0298C64.6484 12.0298 64.6485 12.0298 64.6486 12.0298C64.6487 12.0298 64.6488 12.0298 64.6489 12.0298C64.649 12.0298 64.6491 12.0298 64.6492 12.0298C64.6493 12.0298 64.6494 12.0298 64.6495 12.0298C64.6496 12.0298 64.6497 12.0298 64.6498 12.0298C64.6499 12.0298 64.65 12.0298 64.6501 12.0298C64.6502 12.0298 64.6503 12.0298 64.6504 12.0298C64.6505 12.0298 64.6506 12.0298 64.6507 12.0298C64.6508 12.0298 64.6509 12.0298 64.651 12.0298C64.6511 12.0298 64.6512 12.0298 64.6513 12.0298C64.6514 12.0298 64.6515 12.0298 64.6516 12.0298C64.6517 12.0298 64.6517 12.0298 64.6518 12.0298C64.6519 12.0298 64.652 12.0298 64.6521 12.0298C64.6522 12.0298 64.6523 12.0298 64.6524 12.0298C64.6525 12.0298 64.6526 12.0298 64.6527 12.0298C64.6528 12.0298 64.6529 12.0298 64.653 12.0298C64.6531 12.0298 64.6532 12.0298 64.6533 12.0298C64.6534 12.0298 64.6535 12.0298 64.6536 12.0298C64.6537 12.0298 64.6538 12.0298 64.6539 12.0298C64.654 12.0298 64.6541 12.0298 64.6542 12.0298C64.6543 12.0298 64.6544 12.0298 64.6545 12.0298C64.6546 12.0298 64.6547 12.0298 64.6548 12.0298C64.6549 12.0298 64.655 12.0298 64.6551 12.0298C64.6552 12.0298 64.6553 12.0298 64.6554 12.0298C64.6555 12.0298 64.6556 12.0298 64.6557 12.0298C64.6558 12.0298 64.6558 12.0298 64.6559 12.0298C64.656 12.0298 64.6561 12.0298 64.6562 12.0298C64.6563 12.0298 64.6564 12.0298 64.6565 12.0298C64.6566 12.0298 64.6567 12.0298 64.6568 12.0298C64.6569 12.0298 64.657 12.0298 64.6571 12.0298C64.6572 12.0298 64.6573 12.0298 64.6574 12.0298C64.6575 12.0298 64.6576 12.0298 64.6577 12.0298C64.6578 12.0298 64.6579 12.0298 64.658 12.0298C64.6581 12.0298 64.6582 12.0298 64.6583 12.0298C64.6584 12.0298 64.6585 12.0298 64.6586 12.0298C64.6587 12.0298 64.6588 12.0298 64.6589 12.0298C64.659 12.0298 64.6591 12.0298 64.6592 12.0298C64.6593 12.0298 64.6594 12.0298 64.6595 12.0298C64.6596 12.0298 64.6597 12.0298 64.6598 12.0298C64.6599 12.0298 64.66 12.0298 64.66 12.0298C64.6601 12.0298 64.6602 12.0298 64.6603 12.0298C64.6604 12.0298 64.6605 12.0298 64.6606 12.0298C64.6607 12.0298 64.6608 12.0298 64.6609 12.0298C64.661 12.0298 64.6611 12.0298 64.6612 12.0298C64.6613 12.0298 64.6614 12.0298 64.6615 12.0298C64.6616 12.0298 64.6617 12.0298 64.6618 12.0298C64.6619 12.0298 64.662 12.0298 64.6621 12.0298C64.6622 12.0298 64.6623 12.0298 64.6624 12.0298C64.6625 12.0298 64.6626 12.0298 64.6627 12.0298C64.6628 12.0298 64.6629 12.0298 64.663 12.0298C64.6631 12.0298 64.6632 12.0298 64.6633 12.0298C64.6634 12.0298 64.6635 12.0298 64.6636 12.0298C64.6637 12.0298 64.6638 12.0298 64.6639 12.0298C64.664 12.0298 64.6641 12.0298 64.6642 12.0298C64.6642 12.0298 64.6643 12.0298 64.6644 12.0298C64.6645 12.0298 64.6646 12.0298 64.6647 12.0298C64.6648 12.0298 64.6649 12.0298 64.665 12.0298C64.6651 12.0298 64.6652 12.0298 64.6653 12.0298C64.6654 12.0298 64.6655 12.0298 64.6656 12.0298C64.6657 12.0298 64.6658 12.0298 64.6659 12.0298C64.666 12.0298 64.6661 12.0298 64.6662 12.0298C64.6663 12.0298 64.6664 12.0298 64.6665 12.0298C64.6666 12.0298 64.6667 12.0298 64.6668 12.0298C64.6669 12.0298 64.667 12.0298 64.6671 12.0298C64.6672 12.0298 64.6673 12.0298 64.6674 12.0298C64.6675 12.0298 64.6676 12.0298 64.6677 12.0298C64.6678 12.0298 64.6679 12.0298 64.668 12.0298C64.6681 12.0298 64.6682 12.0298 64.6683 12.0298C64.6684 12.0298 64.6684 12.0298 64.6685 12.0298C64.6686 12.0298 64.6687 12.0298 64.6688 12.0298C64.6689 12.0298 64.669 12.0298 64.6691 12.0298C64.6692 12.0298 64.6693 12.0298 64.6694 12.0298C64.6695 12.0298 64.6696 12.0298 64.6697 12.0298C64.6698 12.0298 64.6699 12.0298 64.67 12.0298C64.6701 12.0298 64.6702 12.0298 64.6703 12.0298C64.6704 12.0298 64.6705 12.0298 64.6706 12.0298C64.6707 12.0298 64.6708 12.0298 64.6709 12.0298C64.671 12.0298 64.6711 12.0298 64.6712 12.0298C64.6713 12.0298 64.6714 12.0298 64.6715 12.0298C64.6716 12.0298 64.6717 12.0298 64.6718 12.0298C64.6719 12.0298 64.672 12.0298 64.6721 12.0298C64.6722 12.0298 64.6723 12.0298 64.6724 12.0298C64.6725 12.0298 64.6725 12.0298 64.6726 12.0298C64.6727 12.0298 64.6728 12.0298 64.6729 12.0298C64.673 12.0298 64.6731 12.0298 64.6732 12.0298C64.6733 12.0298 64.6734 12.0298 64.6735 12.0298C64.6736 12.0298 64.6737 12.0298 64.6738 12.0298C64.6739 12.0298 64.674 12.0298 64.6741 12.0298C64.6742 12.0298 64.6743 12.0298 64.6744 12.0298C64.6745 12.0298 64.6746 12.0298 64.6747 12.0298C64.6748 12.0298 64.6749 12.0298 64.675 12.0298C64.6751 12.0298 64.6752 12.0298 64.6753 12.0298C64.6754 12.0298 64.6755 12.0298 64.6756 12.0298C64.6757 12.0298 64.6758 12.0298 64.6759 12.0298C64.676 12.0298 64.6761 12.0298 64.6762 12.0298C64.6763 12.0298 64.6764 12.0298 64.6765 12.0298C64.6766 12.0298 64.6767 12.0298 64.6767 12.0298C64.6768 12.0298 64.6769 12.0298 64.677 12.0298C64.6771 12.0298 64.6772 12.0298 64.6773 12.0298C64.6774 12.0298 64.6775 12.0298 64.6776 12.0298C64.6777 12.0298 64.6778 12.0298 64.6779 12.0298C64.678 12.0298 64.6781 12.0298 64.6782 12.0298C64.6783 12.0298 64.6784 12.0298 64.6785 12.0298C64.6786 12.0298 64.6787 12.0298 64.6788 12.0298C64.6789 12.0298 64.679 12.0298 64.6791 12.0298C64.6792 12.0298 64.6793 12.0298 64.6794 12.0298C64.6795 12.0298 64.6796 12.0298 64.6797 12.0298C64.6798 12.0298 64.6799 12.0298 64.68 12.0298C64.6801 12.0298 64.6802 12.0298 64.6803 12.0298C64.6804 12.0298 64.6805 12.0298 64.6806 12.0298C64.6807 12.0298 64.6808 12.0298 64.6808 12.0298C64.6809 12.0298 64.681 12.0298 64.6811 12.0298C64.6812 12.0298 64.6813 12.0298 64.6814 12.0298C64.6815 12.0298 64.6816 12.0298 64.6817 12.0298C64.6818 12.0298 64.6819 12.0298 64.682 12.0298C64.6821 12.0298 64.6822 12.0298 64.6823 12.0298C64.6824 12.0298 64.6825 12.0298 64.6826 12.0298C64.6827 12.0298 64.6828 12.0298 64.6829 12.0298C64.683 12.0298 64.6831 12.0298 64.6832 12.0298C64.6833 12.0298 64.6834 12.0298 64.6835 12.0298C64.6836 12.0298 64.6837 12.0298 64.6838 12.0298C64.6839 12.0298 64.684 12.0298 64.6841 12.0298C64.6842 12.0298 64.6843 12.0298 64.6844 12.0298C64.6845 12.0298 64.6846 12.0298 64.6847 12.0298C64.6848 12.0298 64.6849 12.0298 64.685 12.0298C64.685 12.0298 64.6851 12.0298 64.6852 12.0298C64.6853 12.0298 64.6854 12.0298 64.6855 12.0298C64.6856 12.0298 64.6857 12.0298 64.6858 12.0298C64.6859 12.0298 64.686 12.0298 64.6861 12.0298C64.6862 12.0298 64.6863 12.0298 64.6864 12.0298C64.6865 12.0298 64.6866 12.0298 64.6867 12.0298C64.6868 12.0298 64.6869 12.0298 64.687 12.0298C64.6871 12.0298 64.6872 12.0298 64.6873 12.0298C64.6874 12.0298 64.6875 12.0298 64.6876 12.0298C64.6877 12.0298 64.6878 12.0298 64.6879 12.0298C64.688 12.0298 64.6881 12.0298 64.6882 12.0298C64.6883 12.0298 64.6884 12.0298 64.6885 12.0298C64.6886 12.0298 64.6887 12.0298 64.6888 12.0298C64.6889 12.0298 64.689 12.0298 64.6891 12.0298C64.6891 12.0298 64.6892 12.0298 64.6893 12.0298C64.6894 12.0298 64.6895 12.0298 64.6896 12.0298C64.6897 12.0298 64.6898 12.0298 64.6899 12.0298C64.69 12.0298 64.6901 12.0298 64.6902 12.0298C64.6903 12.0298 64.6904 12.0298 64.6905 12.0298C64.6906 12.0298 64.6907 12.0298 64.6908 12.0298C64.6909 12.0298 64.691 12.0298 64.6911 12.0298C64.6912 12.0298 64.6913 12.0298 64.6914 12.0298C64.6915 12.0298 64.6916 12.0298 64.6917 12.0298C64.6918 12.0298 64.6919 12.0298 64.692 12.0298C64.6921 12.0298 64.6922 12.0298 64.6923 12.0298C64.6924 12.0298 64.6925 12.0298 64.6926 12.0298C64.6927 12.0298 64.6928 12.0298 64.6929 12.0298C64.693 12.0298 64.6931 12.0298 64.6932 12.0298C64.6933 12.0298 64.6933 12.0298 64.6934 12.0298C64.6935 12.0298 64.6936 12.0298 64.6937 12.0298C64.6938 12.0298 64.6939 12.0298 64.694 12.0298C64.6941 12.0298 64.6942 12.0298 64.6943 12.0298C64.6944 12.0298 64.6945 12.0298 64.6946 12.0298C64.6947 12.0298 64.6948 12.0298 64.6949 12.0298C64.695 12.0298 64.6951 12.0298 64.6952 12.0298C64.6953 12.0298 64.6954 12.0298 64.6955 12.0298C64.6956 12.0298 64.6957 12.0298 64.6958 12.0298C64.6959 12.0298 64.696 12.0298 64.6961 12.0298C64.6962 12.0298 64.6963 12.0298 64.6964 12.0298C64.6965 12.0298 64.6966 12.0298 64.6967 12.0298C64.6968 12.0298 64.6969 12.0298 64.697 12.0298C64.6971 12.0298 64.6972 12.0298 64.6973 12.0298C64.6974 12.0298 64.6975 12.0298 64.6975 12.0298C64.6976 12.0298 64.6977 12.0298 64.6978 12.0298C64.6979 12.0298 64.698 12.0298 64.6981 12.0298C64.6982 12.0298 64.6983 12.0298 64.6984 12.0298C64.6985 12.0298 64.6986 12.0298 64.6987 12.0298C64.6988 12.0298 64.6989 12.0298 64.699 12.0298C64.6991 12.0298 64.6992 12.0298 64.6993 12.0298C64.6994 12.0298 64.6995 12.0298 64.6996 12.0298C64.6997 12.0298 64.6998 12.0298 64.6999 12.0298C64.7 12.0298 64.7001 12.0298 64.7002 12.0298C64.7003 12.0298 64.7004 12.0298 64.7005 12.0298C64.7006 12.0298 64.7007 12.0298 64.7008 12.0298C64.7009 12.0298 64.701 12.0298 64.7011 12.0298C64.7012 12.0298 64.7013 12.0298 64.7014 12.0298C64.7015 12.0298 64.7016 12.0298 64.7017 12.0298C64.7017 12.0298 64.7018 12.0298 64.7019 12.0298C64.702 12.0298 64.7021 12.0298 64.7022 12.0298C64.7023 12.0298 64.7024 12.0298 64.7025 12.0298C64.7026 12.0298 64.7027 12.0298 64.7028 12.0298C64.7029 12.0298 64.703 12.0298 64.7031 12.0298C64.7032 12.0298 64.7033 12.0298 64.7034 12.0298C64.7035 12.0298 64.7036 12.0298 64.7037 12.0298C64.7038 12.0298 64.7039 12.0298 64.704 12.0298C64.7041 12.0298 64.7042 12.0298 64.7043 12.0298C64.7044 12.0298 64.7045 12.0298 64.7046 12.0298C64.7047 12.0298 64.7048 12.0298 64.7049 12.0298C64.705 12.0298 64.7051 12.0298 64.7052 12.0298C64.7053 12.0298 64.7054 12.0298 64.7055 12.0298C64.7056 12.0298 64.7057 12.0298 64.7058 12.0298C64.7059 12.0298 64.7059 12.0298 64.706 12.0298C64.7061 12.0298 64.7062 12.0298 64.7063 12.0298C64.7064 12.0298 64.7065 12.0298 64.7066 12.0298C64.7067 12.0298 64.7068 12.0298 64.7069 12.0298C64.707 12.0298 64.7071 12.0298 64.7072 12.0298C64.7073 12.0298 64.7074 12.0298 64.7075 12.0298C64.7076 12.0298 64.7077 12.0298 64.7078 12.0298C64.7079 12.0298 64.708 12.0298 64.7081 12.0298C64.7082 12.0298 64.7083 12.0298 64.7084 12.0298C64.7085 12.0298 64.7086 12.0298 64.7087 12.0298C64.7088 12.0298 64.7089 12.0298 64.709 12.0298C64.7091 12.0298 64.7092 12.0298 64.7093 12.0298C64.7094 12.0298 64.7095 12.0298 64.7096 12.0298C64.7097 12.0298 64.7098 12.0298 64.7099 12.0298C64.71 12.0298 64.71 12.0298 64.7101 12.0298C64.7102 12.0298 64.7103 12.0298 64.7104 12.0298C64.7105 12.0298 64.7106 12.0298 64.7107 12.0298V10.0298ZM64.5607 10.0298C63.5786 10.0298 62.6904 10.331 62.0159 11.0205L63.4456 12.4191C63.6711 12.1886 64.0029 12.0298 64.5607 12.0298V10.0298ZM62.0159 11.0205C61.3263 11.7254 61.0557 12.6777 61.0557 13.7148H63.0557C63.0557 13.0119 63.2351 12.6342 63.4456 12.4191L62.0159 11.0205ZM61.0557 13.7148V17.6748H63.0557V13.7148H61.0557ZM62.0557 16.6748H60.6157V18.6748H62.0557V16.6748ZM68.2228 20.4798L68.5624 19.5393C68.5547 19.5364 68.5469 19.5337 68.539 19.5311L68.2228 20.4798ZM67.2928 19.9398L66.4238 19.445C66.1936 19.8493 66.2726 20.359 66.6145 20.6746L67.2928 19.9398ZM67.9078 18.8598L68.5966 18.1348C68.3737 17.9231 68.0658 17.8256 67.7616 17.8705C67.4575 17.9155 67.1909 18.0978 67.0388 18.365L67.9078 18.8598ZM68.5678 19.2948L68.9524 18.3717L68.5678 19.2948ZM70.2028 19.1748L69.5865 18.3873L70.2028 19.1748ZM70.8478 18.2148L69.9366 17.8029C69.9346 17.8073 69.9327 17.8117 69.9307 17.8161L70.8478 18.2148ZM71.3428 17.1198L70.5746 16.4796C70.5168 16.5489 70.4687 16.6257 70.4316 16.7079L71.3428 17.1198ZM71.4928 16.9398L72.261 17.58C72.3223 17.5065 72.3727 17.4245 72.4107 17.3367L71.4928 16.9398ZM74.6128 9.7248V8.7248C74.214 8.7248 73.8533 8.96181 73.6949 9.32789L74.6128 9.7248ZM76.0228 9.7248L76.9378 10.1282C77.0742 9.81892 77.0451 9.46173 76.8605 9.17862C76.6759 8.89552 76.3608 8.7248 76.0228 8.7248V9.7248ZM72.1678 18.4698L71.2528 18.0664C71.2493 18.0742 71.246 18.082 71.2428 18.0899L72.1678 18.4698ZM71.3878 19.7898L70.6468 19.1183C70.6429 19.1226 70.6391 19.1269 70.6352 19.1313L71.3878 19.7898ZM70.4578 20.4648L70.1007 19.5308C70.0928 19.5338 70.0849 19.5369 70.0771 19.5401L70.4578 20.4648ZM71.2228 17.9298L70.3083 18.3344C70.4474 18.6488 70.7382 18.8697 71.0784 18.9193C71.4185 18.969 71.7603 18.8404 71.9835 18.5789L71.2228 17.9298ZM67.5928 9.7248V8.7248C67.2546 8.7248 66.9393 8.89575 66.7548 9.17918C66.5702 9.46261 66.5415 9.8201 66.6783 10.1294L67.5928 9.7248ZM69.0928 9.7248L70.0093 9.3248C69.8503 8.96038 69.4904 8.7248 69.0928 8.7248V9.7248ZM72.1828 16.8048L72.9435 17.4539C73.1919 17.1628 73.2524 16.7555 73.0993 16.4048L72.1828 16.8048ZM69.3328 19.6748C69.0695 19.6748 68.8143 19.6302 68.5624 19.5393L67.8832 21.4204C68.3513 21.5894 68.8361 21.6748 69.3328 21.6748V19.6748ZM68.539 19.5311C68.3036 19.4526 68.1195 19.342 67.9711 19.205L66.6145 20.6746C66.9861 21.0176 67.422 21.267 67.9066 21.4285L68.539 19.5311ZM68.1618 20.4346L68.7768 19.3546L67.0388 18.365L66.4238 19.445L68.1618 20.4346ZM67.2191 19.5848C67.5021 19.8537 67.8238 20.0682 68.1832 20.2179L68.9524 18.3717C68.8318 18.3215 68.7136 18.246 68.5966 18.1348L67.2191 19.5848ZM68.1832 20.2179C68.5497 20.3706 68.936 20.4448 69.3328 20.4448V18.4448C69.1896 18.4448 69.0659 18.419 68.9524 18.3717L68.1832 20.2179ZM69.3328 20.4448C69.8604 20.4448 70.3802 20.3058 70.8191 19.9623L69.5865 18.3873C69.5654 18.4038 69.5052 18.4448 69.3328 18.4448V20.4448ZM70.8191 19.9623C71.243 19.6306 71.54 19.1308 71.7649 18.6135L69.9307 17.8161C69.7556 18.2188 69.6226 18.359 69.5865 18.3873L70.8191 19.9623ZM71.759 18.6267L72.254 17.5317L70.4316 16.7079L69.9366 17.8029L71.759 18.6267ZM72.111 17.76L72.261 17.58L70.7246 16.2996L70.5746 16.4796L72.111 17.76ZM72.4107 17.3367L75.5307 10.1217L73.6949 9.32789L70.5749 16.5429L72.4107 17.3367ZM74.6128 10.7248H76.0228V8.7248H74.6128V10.7248ZM75.1078 9.32143L71.2528 18.0664L73.0828 18.8732L76.9378 10.1282L75.1078 9.32143ZM71.2428 18.0899C71.0405 18.5825 70.8347 18.911 70.6468 19.1183L72.1288 20.4613C72.5209 20.0286 72.8351 19.4771 73.0928 18.8497L71.2428 18.0899ZM70.6352 19.1313C70.4445 19.3493 70.2646 19.4681 70.1007 19.5308L70.8149 21.3989C71.331 21.2015 71.7711 20.8703 72.1404 20.4483L70.6352 19.1313ZM70.0771 19.5401C69.871 19.625 69.6272 19.6748 69.3328 19.6748V21.6748C69.8584 21.6748 70.3646 21.5846 70.8386 21.3895L70.0771 19.5401ZM72.1373 17.5252L68.5073 9.32022L66.6783 10.1294L70.3083 18.3344L72.1373 17.5252ZM67.5928 10.7248H69.0928V8.7248H67.5928V10.7248ZM68.1763 10.1248L71.2663 17.2048L73.0993 16.4048L70.0093 9.3248L68.1763 10.1248ZM71.4221 16.1557L70.4621 17.2807L71.9835 18.5789L72.9435 17.4539L71.4221 16.1557Z" fill="#141856"/>
</svg>
