<svg width="116" height="39" viewBox="0 0 116 39" fill="none" xmlns="http://www.w3.org/2000/svg">
<rect x="31.1219" y="5.44186" width="29.2358" height="28.1163" rx="4" fill="#141856"/>
<rect x="36.3374" y="10.4767" width="18.8049" height="18.0465" rx="3.5" fill="#141856" stroke="white"/>
<rect x="34.8943" y="3.6279" width="2.82927" height="1.81395" fill="#141856"/>
<rect x="53.7561" y="3.6279" width="2.82927" height="1.81395" fill="#141856"/>
<rect x="49.0406" y="3.6279" width="2.82927" height="1.81395" fill="#141856"/>
<rect x="44.3252" y="3.6279" width="2.82927" height="1.81395" fill="#141856"/>
<rect x="39.6097" y="3.6279" width="2.82927" height="1.81395" fill="#141856"/>
<rect x="34.8943" y="33.5581" width="2.82927" height="1.81395" fill="#141856"/>
<rect x="53.7561" y="33.5581" width="2.82927" height="1.81395" fill="#141856"/>
<rect x="49.0406" y="33.5581" width="2.82927" height="1.81395" fill="#141856"/>
<rect x="44.3252" y="33.5581" width="2.82927" height="1.81395" fill="#141856"/>
<rect x="39.6097" y="33.5581" width="2.82927" height="1.81395" fill="#141856"/>
<rect x="31.1219" y="9.06976" width="2.72093" height="1.88618" transform="rotate(90 31.1219 9.06976)" fill="#141856"/>
<rect x="31.1219" y="27.2093" width="2.72093" height="1.88618" transform="rotate(90 31.1219 27.2093)" fill="#141856"/>
<rect x="31.1219" y="22.6744" width="2.72093" height="1.88618" transform="rotate(90 31.1219 22.6744)" fill="#141856"/>
<rect x="31.1219" y="18.1395" width="2.72093" height="1.88618" transform="rotate(90 31.1219 18.1395)" fill="#141856"/>
<rect x="31.1219" y="13.6046" width="2.72093" height="1.88618" transform="rotate(90 31.1219 13.6046)" fill="#141856"/>
<rect x="60.3578" y="11.7907" width="2.72093" height="1.88618" transform="rotate(-90 60.3578 11.7907)" fill="#141856"/>
<rect x="60.3578" y="29.9239" width="2.72093" height="1.88618" transform="rotate(-90 60.3578 29.9239)" fill="#141856"/>
<rect x="60.3578" y="25.3954" width="2.72093" height="1.88618" transform="rotate(-90 60.3578 25.3954)" fill="#141856"/>
<rect x="60.3578" y="20.8605" width="2.72093" height="1.88618" transform="rotate(-90 60.3578 20.8605)" fill="#141856"/>
<rect x="60.3578" y="16.3256" width="2.72093" height="1.88618" transform="rotate(-90 60.3578 16.3256)" fill="#141856"/>
<rect x="35.8374" width="0.943089" height="2.72093" fill="#141856"/>
<rect x="54.6992" width="0.943089" height="2.72093" fill="#141856"/>
<rect x="49.9838" width="0.943089" height="2.72093" fill="#141856"/>
<rect x="45.2683" width="0.943089" height="2.72093" fill="#141856"/>
<rect x="40.5529" width="0.943089" height="2.72093" fill="#141856"/>
<rect x="25.4634" y="29.0233" width="0.906977" height="2.82927" transform="rotate(-90 25.4634 29.0233)" fill="#141856"/>
<rect x="25.4634" y="10.8837" width="0.906977" height="2.82927" transform="rotate(-90 25.4634 10.8837)" fill="#141856"/>
<rect x="25.4634" y="15.4186" width="0.906977" height="2.82927" transform="rotate(-90 25.4634 15.4186)" fill="#141856"/>
<rect x="25.4634" y="19.9535" width="0.906977" height="2.82927" transform="rotate(-90 25.4634 19.9535)" fill="#141856"/>
<rect x="25.4634" y="24.4884" width="0.906977" height="2.82927" transform="rotate(-90 25.4634 24.4884)" fill="#141856"/>
<rect x="63.187" y="10.8837" width="0.906977" height="2.82927" transform="rotate(-90 63.187 10.8837)" fill="#141856"/>
<rect x="63.187" y="29.0233" width="0.906977" height="2.82927" transform="rotate(-90 63.187 29.0233)" fill="#141856"/>
<rect x="63.187" y="24.4884" width="0.906977" height="2.82927" transform="rotate(-90 63.187 24.4884)" fill="#141856"/>
<rect x="63.187" y="19.9535" width="0.906977" height="2.82927" transform="rotate(-90 63.187 19.9535)" fill="#141856"/>
<rect x="63.187" y="15.4186" width="0.906977" height="2.82927" transform="rotate(-90 63.187 15.4186)" fill="#141856"/>
<rect x="35.8374" y="36.2791" width="0.943089" height="2.72093" fill="#141856"/>
<rect x="54.6992" y="36.2791" width="0.943089" height="2.72093" fill="#141856"/>
<rect x="49.9838" y="36.2791" width="0.943089" height="2.72093" fill="#141856"/>
<rect x="45.2683" y="36.2791" width="0.943089" height="2.72093" fill="#141856"/>
<rect x="40.5529" y="36.2791" width="0.943089" height="2.72093" fill="#141856"/>
<path d="M2.54576 29.3488V12.5488H4.94576V29.3488H2.54576ZM14.5074 29.4928C13.2274 29.4928 12.2354 29.1488 11.5314 28.4608C10.8274 27.7728 10.4754 26.7888 10.4754 25.5088V13.8448H12.7794V25.4128C12.7794 26.1008 12.9474 26.6288 13.2834 26.9968C13.6354 27.3648 14.1314 27.5488 14.7714 27.5488C15.4914 27.5488 16.0914 27.3488 16.5714 26.9488L17.2914 28.6048C16.9394 28.9088 16.5154 29.1328 16.0194 29.2768C15.5394 29.4208 15.0354 29.4928 14.5074 29.4928ZM8.31544 18.5248V16.6288H16.4274V18.5248H8.31544Z" fill="#141856"/>
<path d="M2.54576 29.3488H1.54576C1.54576 29.9011 1.99347 30.3488 2.54576 30.3488V29.3488ZM2.54576 12.5488V11.5488C1.99347 11.5488 1.54576 11.9966 1.54576 12.5488H2.54576ZM4.94576 12.5488H5.94576C5.94576 11.9966 5.49804 11.5488 4.94576 11.5488V12.5488ZM4.94576 29.3488V30.3488C5.49804 30.3488 5.94576 29.9011 5.94576 29.3488H4.94576ZM3.54576 29.3488V12.5488H1.54576V29.3488H3.54576ZM2.54576 13.5488H4.94576V11.5488H2.54576V13.5488ZM3.94576 12.5488V29.3488H5.94576V12.5488H3.94576ZM4.94576 28.3488H2.54576V30.3488H4.94576V28.3488ZM11.5314 28.4608L10.8325 29.176L11.5314 28.4608ZM10.4754 13.8448V12.8448C9.92316 12.8448 9.47544 13.2926 9.47544 13.8448H10.4754ZM12.7794 13.8448H13.7794C13.7794 13.2926 13.3317 12.8448 12.7794 12.8448V13.8448ZM13.2834 26.9968L12.545 27.6711C12.5502 27.6768 12.5555 27.6825 12.5608 27.6881L13.2834 26.9968ZM16.5714 26.9488L17.4885 26.5501C17.363 26.2613 17.1087 26.0486 16.8023 25.9759C16.4959 25.9032 16.1732 25.979 15.9313 26.1806L16.5714 26.9488ZM17.2914 28.6048L17.9451 29.3617C18.2763 29.0756 18.383 28.6075 18.2085 28.2061L17.2914 28.6048ZM16.0194 29.2768L15.7406 28.3165L15.7321 28.319L16.0194 29.2768ZM8.31544 18.5248H7.31544C7.31544 19.0771 7.76316 19.5248 8.31544 19.5248V18.5248ZM8.31544 16.6288V15.6288C7.76316 15.6288 7.31544 16.0766 7.31544 16.6288H8.31544ZM16.4274 16.6288H17.4274C17.4274 16.0766 16.9797 15.6288 16.4274 15.6288V16.6288ZM16.4274 18.5248V19.5248C16.9797 19.5248 17.4274 19.0771 17.4274 18.5248H16.4274ZM14.5074 28.4928C13.4072 28.4928 12.6964 28.2011 12.2304 27.7457L10.8325 29.176C11.7745 30.0966 13.0477 30.4928 14.5074 30.4928V28.4928ZM12.2304 27.7457C11.772 27.2977 11.4754 26.6042 11.4754 25.5088H9.47544C9.47544 26.9735 9.88291 28.248 10.8325 29.176L12.2304 27.7457ZM11.4754 25.5088V13.8448H9.47544V25.5088H11.4754ZM10.4754 14.8448H12.7794V12.8448H10.4754V14.8448ZM11.7794 13.8448V25.4128H13.7794V13.8448H11.7794ZM11.7794 25.4128C11.7794 26.2548 11.9858 27.0587 12.545 27.6711L14.0219 26.3226C13.9091 26.199 13.7794 25.9469 13.7794 25.4128H11.7794ZM12.5608 27.6881C13.1474 28.3013 13.9329 28.5488 14.7714 28.5488V26.5488C14.33 26.5488 14.1235 26.4284 14.0061 26.3056L12.5608 27.6881ZM14.7714 28.5488C15.6878 28.5488 16.525 28.2893 17.2116 27.7171L15.9313 26.1806C15.6579 26.4084 15.2951 26.5488 14.7714 26.5488V28.5488ZM15.6544 27.3476L16.3744 29.0036L18.2085 28.2061L17.4885 26.5501L15.6544 27.3476ZM16.6378 27.848C16.4062 28.0481 16.1139 28.2081 15.7406 28.3165L16.2983 30.2372C16.917 30.0576 17.4727 29.7696 17.9451 29.3617L16.6378 27.848ZM15.7321 28.319C15.3502 28.4336 14.9433 28.4928 14.5074 28.4928V30.4928C15.1275 30.4928 15.7287 30.4081 16.3068 30.2347L15.7321 28.319ZM9.31544 18.5248V16.6288H7.31544V18.5248H9.31544ZM8.31544 17.6288H16.4274V15.6288H8.31544V17.6288ZM15.4274 16.6288V18.5248H17.4274V16.6288H15.4274ZM16.4274 17.5248H8.31544V19.5248H16.4274V17.5248Z" fill="#141856"/>
<path d="M78.0589 29.3488V14.6368H72.2989V12.5488H86.1949V14.6368H80.4349V29.3488H78.0589ZM90.1681 29.3488V16.6288H92.3761V20.0848L92.1601 19.2208C92.5121 18.3408 93.1041 17.6688 93.9361 17.2048C94.7681 16.7408 95.7921 16.5088 97.0081 16.5088V18.7408C96.9121 18.7248 96.8161 18.7168 96.7201 18.7168C96.6401 18.7168 96.5601 18.7168 96.4801 18.7168C95.2481 18.7168 94.2721 19.0848 93.5521 19.8208C92.8321 20.5568 92.4721 21.6208 92.4721 23.0128V29.3488H90.1681ZM102.915 34.1488C102.307 34.1488 101.715 34.0448 101.139 33.8368C100.563 33.6448 100.067 33.3568 99.6514 32.9728L100.635 31.2448C100.955 31.5488 101.307 31.7808 101.691 31.9408C102.075 32.1008 102.483 32.1808 102.915 32.1808C103.475 32.1808 103.939 32.0368 104.307 31.7488C104.675 31.4608 105.019 30.9488 105.339 30.2128L106.131 28.4608L106.371 28.1728L111.363 16.6288H113.619L107.451 30.6208C107.083 31.5168 106.667 32.2208 106.203 32.7328C105.755 33.2448 105.259 33.6048 104.715 33.8128C104.171 34.0368 103.571 34.1488 102.915 34.1488ZM105.939 29.7568L100.131 16.6288H102.531L107.475 27.9568L105.939 29.7568Z" fill="#141856"/>
<path d="M78.0589 29.3488H77.0589C77.0589 29.9011 77.5066 30.3488 78.0589 30.3488V29.3488ZM78.0589 14.6368H79.0589C79.0589 14.0846 78.6111 13.6368 78.0589 13.6368V14.6368ZM72.2989 14.6368H71.2989C71.2989 15.1891 71.7466 15.6368 72.2989 15.6368V14.6368ZM72.2989 12.5488V11.5488C71.7466 11.5488 71.2989 11.9966 71.2989 12.5488H72.2989ZM86.1949 12.5488H87.1949C87.1949 11.9966 86.7471 11.5488 86.1949 11.5488V12.5488ZM86.1949 14.6368V15.6368C86.7471 15.6368 87.1949 15.1891 87.1949 14.6368H86.1949ZM80.4349 14.6368V13.6368C79.8826 13.6368 79.4349 14.0846 79.4349 14.6368H80.4349ZM80.4349 29.3488V30.3488C80.9871 30.3488 81.4349 29.9011 81.4349 29.3488H80.4349ZM79.0589 29.3488V14.6368H77.0589V29.3488H79.0589ZM78.0589 13.6368H72.2989V15.6368H78.0589V13.6368ZM73.2989 14.6368V12.5488H71.2989V14.6368H73.2989ZM72.2989 13.5488H86.1949V11.5488H72.2989V13.5488ZM85.1949 12.5488V14.6368H87.1949V12.5488H85.1949ZM86.1949 13.6368H80.4349V15.6368H86.1949V13.6368ZM79.4349 14.6368V29.3488H81.4349V14.6368H79.4349ZM80.4349 28.3488H78.0589V30.3488H80.4349V28.3488ZM90.1681 29.3488H89.1681C89.1681 29.9011 89.6158 30.3488 90.1681 30.3488V29.3488ZM90.1681 16.6288V15.6288C89.6158 15.6288 89.1681 16.0766 89.1681 16.6288H90.1681ZM92.3761 16.6288H93.3761C93.3761 16.0766 92.9284 15.6288 92.3761 15.6288V16.6288ZM92.3761 20.0848L91.406 20.3274C91.5285 20.8173 91.997 21.1391 92.4983 21.0774C92.9995 21.0156 93.3761 20.5899 93.3761 20.0848H92.3761ZM92.1601 19.2208L91.2316 18.8495C91.1536 19.0446 91.139 19.2594 91.19 19.4634L92.1601 19.2208ZM93.9361 17.2048L93.449 16.3315V16.3315L93.9361 17.2048ZM97.0081 16.5088H98.0081C98.0081 15.9566 97.5604 15.5088 97.0081 15.5088V16.5088ZM97.0081 18.7408L96.8437 19.7272C97.1337 19.7756 97.4302 19.6939 97.6545 19.5039C97.8788 19.3139 98.0081 19.0348 98.0081 18.7408H97.0081ZM92.4721 29.3488V30.3488C93.0244 30.3488 93.4721 29.9011 93.4721 29.3488H92.4721ZM91.1681 29.3488V16.6288H89.1681V29.3488H91.1681ZM90.1681 17.6288H92.3761V15.6288H90.1681V17.6288ZM91.3761 16.6288V20.0848H93.3761V16.6288H91.3761ZM93.3463 19.8423L93.1303 18.9783L91.19 19.4634L91.406 20.3274L93.3463 19.8423ZM93.0886 19.5922C93.3549 18.9264 93.7904 18.4311 94.4232 18.0782L93.449 16.3315C92.4178 16.9066 91.6693 17.7553 91.2316 18.8495L93.0886 19.5922ZM94.4232 18.0782C95.0706 17.7171 95.9165 17.5088 97.0081 17.5088V15.5088C95.6677 15.5088 94.4656 15.7645 93.449 16.3315L94.4232 18.0782ZM96.0081 16.5088V18.7408H98.0081V16.5088H96.0081ZM97.1725 17.7545C97.0229 17.7295 96.8719 17.7168 96.7201 17.7168V19.7168C96.7603 19.7168 96.8013 19.7202 96.8437 19.7272L97.1725 17.7545ZM96.7201 17.7168C96.72 17.7168 96.7198 17.7168 96.7196 17.7168C96.7195 17.7168 96.7193 17.7168 96.7192 17.7168C96.719 17.7168 96.7189 17.7168 96.7187 17.7168C96.7185 17.7168 96.7184 17.7168 96.7182 17.7168C96.7181 17.7168 96.7179 17.7168 96.7178 17.7168C96.7176 17.7168 96.7175 17.7168 96.7173 17.7168C96.7171 17.7168 96.717 17.7168 96.7168 17.7168C96.7167 17.7168 96.7165 17.7168 96.7164 17.7168C96.7162 17.7168 96.716 17.7168 96.7159 17.7168C96.7157 17.7168 96.7156 17.7168 96.7154 17.7168C96.7153 17.7168 96.7151 17.7168 96.715 17.7168C96.7148 17.7168 96.7146 17.7168 96.7145 17.7168C96.7143 17.7168 96.7142 17.7168 96.714 17.7168C96.7139 17.7168 96.7137 17.7168 96.7135 17.7168C96.7134 17.7168 96.7132 17.7168 96.7131 17.7168C96.7129 17.7168 96.7128 17.7168 96.7126 17.7168C96.7125 17.7168 96.7123 17.7168 96.7121 17.7168C96.712 17.7168 96.7118 17.7168 96.7117 17.7168C96.7115 17.7168 96.7114 17.7168 96.7112 17.7168C96.711 17.7168 96.7109 17.7168 96.7107 17.7168C96.7106 17.7168 96.7104 17.7168 96.7103 17.7168C96.7101 17.7168 96.71 17.7168 96.7098 17.7168C96.7096 17.7168 96.7095 17.7168 96.7093 17.7168C96.7092 17.7168 96.709 17.7168 96.7089 17.7168C96.7087 17.7168 96.7085 17.7168 96.7084 17.7168C96.7082 17.7168 96.7081 17.7168 96.7079 17.7168C96.7078 17.7168 96.7076 17.7168 96.7075 17.7168C96.7073 17.7168 96.7071 17.7168 96.707 17.7168C96.7068 17.7168 96.7067 17.7168 96.7065 17.7168C96.7064 17.7168 96.7062 17.7168 96.706 17.7168C96.7059 17.7168 96.7057 17.7168 96.7056 17.7168C96.7054 17.7168 96.7053 17.7168 96.7051 17.7168C96.705 17.7168 96.7048 17.7168 96.7046 17.7168C96.7045 17.7168 96.7043 17.7168 96.7042 17.7168C96.704 17.7168 96.7039 17.7168 96.7037 17.7168C96.7035 17.7168 96.7034 17.7168 96.7032 17.7168C96.7031 17.7168 96.7029 17.7168 96.7028 17.7168C96.7026 17.7168 96.7025 17.7168 96.7023 17.7168C96.7021 17.7168 96.702 17.7168 96.7018 17.7168C96.7017 17.7168 96.7015 17.7168 96.7014 17.7168C96.7012 17.7168 96.701 17.7168 96.7009 17.7168C96.7007 17.7168 96.7006 17.7168 96.7004 17.7168C96.7003 17.7168 96.7001 17.7168 96.7 17.7168C96.6998 17.7168 96.6996 17.7168 96.6995 17.7168C96.6993 17.7168 96.6992 17.7168 96.699 17.7168C96.6989 17.7168 96.6987 17.7168 96.6985 17.7168C96.6984 17.7168 96.6982 17.7168 96.6981 17.7168C96.6979 17.7168 96.6978 17.7168 96.6976 17.7168C96.6975 17.7168 96.6973 17.7168 96.6971 17.7168C96.697 17.7168 96.6968 17.7168 96.6967 17.7168C96.6965 17.7168 96.6964 17.7168 96.6962 17.7168C96.696 17.7168 96.6959 17.7168 96.6957 17.7168C96.6956 17.7168 96.6954 17.7168 96.6953 17.7168C96.6951 17.7168 96.695 17.7168 96.6948 17.7168C96.6946 17.7168 96.6945 17.7168 96.6943 17.7168C96.6942 17.7168 96.694 17.7168 96.6939 17.7168C96.6937 17.7168 96.6935 17.7168 96.6934 17.7168C96.6932 17.7168 96.6931 17.7168 96.6929 17.7168C96.6928 17.7168 96.6926 17.7168 96.6925 17.7168C96.6923 17.7168 96.6921 17.7168 96.692 17.7168C96.6918 17.7168 96.6917 17.7168 96.6915 17.7168C96.6914 17.7168 96.6912 17.7168 96.691 17.7168C96.6909 17.7168 96.6907 17.7168 96.6906 17.7168C96.6904 17.7168 96.6903 17.7168 96.6901 17.7168C96.69 17.7168 96.6898 17.7168 96.6896 17.7168C96.6895 17.7168 96.6893 17.7168 96.6892 17.7168C96.689 17.7168 96.6889 17.7168 96.6887 17.7168C96.6885 17.7168 96.6884 17.7168 96.6882 17.7168C96.6881 17.7168 96.6879 17.7168 96.6878 17.7168C96.6876 17.7168 96.6875 17.7168 96.6873 17.7168C96.6871 17.7168 96.687 17.7168 96.6868 17.7168C96.6867 17.7168 96.6865 17.7168 96.6864 17.7168C96.6862 17.7168 96.686 17.7168 96.6859 17.7168C96.6857 17.7168 96.6856 17.7168 96.6854 17.7168C96.6853 17.7168 96.6851 17.7168 96.685 17.7168C96.6848 17.7168 96.6846 17.7168 96.6845 17.7168C96.6843 17.7168 96.6842 17.7168 96.684 17.7168C96.6839 17.7168 96.6837 17.7168 96.6835 17.7168C96.6834 17.7168 96.6832 17.7168 96.6831 17.7168C96.6829 17.7168 96.6828 17.7168 96.6826 17.7168C96.6825 17.7168 96.6823 17.7168 96.6821 17.7168C96.682 17.7168 96.6818 17.7168 96.6817 17.7168C96.6815 17.7168 96.6814 17.7168 96.6812 17.7168C96.681 17.7168 96.6809 17.7168 96.6807 17.7168C96.6806 17.7168 96.6804 17.7168 96.6803 17.7168C96.6801 17.7168 96.68 17.7168 96.6798 17.7168C96.6796 17.7168 96.6795 17.7168 96.6793 17.7168C96.6792 17.7168 96.679 17.7168 96.6789 17.7168C96.6787 17.7168 96.6785 17.7168 96.6784 17.7168C96.6782 17.7168 96.6781 17.7168 96.6779 17.7168C96.6778 17.7168 96.6776 17.7168 96.6775 17.7168C96.6773 17.7168 96.6771 17.7168 96.677 17.7168C96.6768 17.7168 96.6767 17.7168 96.6765 17.7168C96.6764 17.7168 96.6762 17.7168 96.676 17.7168C96.6759 17.7168 96.6757 17.7168 96.6756 17.7168C96.6754 17.7168 96.6753 17.7168 96.6751 17.7168C96.675 17.7168 96.6748 17.7168 96.6746 17.7168C96.6745 17.7168 96.6743 17.7168 96.6742 17.7168C96.674 17.7168 96.6739 17.7168 96.6737 17.7168C96.6735 17.7168 96.6734 17.7168 96.6732 17.7168C96.6731 17.7168 96.6729 17.7168 96.6728 17.7168C96.6726 17.7168 96.6725 17.7168 96.6723 17.7168C96.6721 17.7168 96.672 17.7168 96.6718 17.7168C96.6717 17.7168 96.6715 17.7168 96.6714 17.7168C96.6712 17.7168 96.671 17.7168 96.6709 17.7168C96.6707 17.7168 96.6706 17.7168 96.6704 17.7168C96.6703 17.7168 96.6701 17.7168 96.67 17.7168C96.6698 17.7168 96.6696 17.7168 96.6695 17.7168C96.6693 17.7168 96.6692 17.7168 96.669 17.7168C96.6689 17.7168 96.6687 17.7168 96.6685 17.7168C96.6684 17.7168 96.6682 17.7168 96.6681 17.7168C96.6679 17.7168 96.6678 17.7168 96.6676 17.7168C96.6675 17.7168 96.6673 17.7168 96.6671 17.7168C96.667 17.7168 96.6668 17.7168 96.6667 17.7168C96.6665 17.7168 96.6664 17.7168 96.6662 17.7168C96.666 17.7168 96.6659 17.7168 96.6657 17.7168C96.6656 17.7168 96.6654 17.7168 96.6653 17.7168C96.6651 17.7168 96.665 17.7168 96.6648 17.7168C96.6646 17.7168 96.6645 17.7168 96.6643 17.7168C96.6642 17.7168 96.664 17.7168 96.6639 17.7168C96.6637 17.7168 96.6635 17.7168 96.6634 17.7168C96.6632 17.7168 96.6631 17.7168 96.6629 17.7168C96.6628 17.7168 96.6626 17.7168 96.6625 17.7168C96.6623 17.7168 96.6621 17.7168 96.662 17.7168C96.6618 17.7168 96.6617 17.7168 96.6615 17.7168C96.6614 17.7168 96.6612 17.7168 96.661 17.7168C96.6609 17.7168 96.6607 17.7168 96.6606 17.7168C96.6604 17.7168 96.6603 17.7168 96.6601 17.7168C96.66 17.7168 96.6598 17.7168 96.6596 17.7168C96.6595 17.7168 96.6593 17.7168 96.6592 17.7168C96.659 17.7168 96.6589 17.7168 96.6587 17.7168C96.6585 17.7168 96.6584 17.7168 96.6582 17.7168C96.6581 17.7168 96.6579 17.7168 96.6578 17.7168C96.6576 17.7168 96.6575 17.7168 96.6573 17.7168C96.6571 17.7168 96.657 17.7168 96.6568 17.7168C96.6567 17.7168 96.6565 17.7168 96.6564 17.7168C96.6562 17.7168 96.656 17.7168 96.6559 17.7168C96.6557 17.7168 96.6556 17.7168 96.6554 17.7168C96.6553 17.7168 96.6551 17.7168 96.655 17.7168C96.6548 17.7168 96.6546 17.7168 96.6545 17.7168C96.6543 17.7168 96.6542 17.7168 96.654 17.7168C96.6539 17.7168 96.6537 17.7168 96.6535 17.7168C96.6534 17.7168 96.6532 17.7168 96.6531 17.7168C96.6529 17.7168 96.6528 17.7168 96.6526 17.7168C96.6525 17.7168 96.6523 17.7168 96.6521 17.7168C96.652 17.7168 96.6518 17.7168 96.6517 17.7168C96.6515 17.7168 96.6514 17.7168 96.6512 17.7168C96.651 17.7168 96.6509 17.7168 96.6507 17.7168C96.6506 17.7168 96.6504 17.7168 96.6503 17.7168C96.6501 17.7168 96.65 17.7168 96.6498 17.7168C96.6496 17.7168 96.6495 17.7168 96.6493 17.7168C96.6492 17.7168 96.649 17.7168 96.6489 17.7168C96.6487 17.7168 96.6485 17.7168 96.6484 17.7168C96.6482 17.7168 96.6481 17.7168 96.6479 17.7168C96.6478 17.7168 96.6476 17.7168 96.6475 17.7168C96.6473 17.7168 96.6471 17.7168 96.647 17.7168C96.6468 17.7168 96.6467 17.7168 96.6465 17.7168C96.6464 17.7168 96.6462 17.7168 96.646 17.7168C96.6459 17.7168 96.6457 17.7168 96.6456 17.7168C96.6454 17.7168 96.6453 17.7168 96.6451 17.7168C96.645 17.7168 96.6448 17.7168 96.6446 17.7168C96.6445 17.7168 96.6443 17.7168 96.6442 17.7168C96.644 17.7168 96.6439 17.7168 96.6437 17.7168C96.6435 17.7168 96.6434 17.7168 96.6432 17.7168C96.6431 17.7168 96.6429 17.7168 96.6428 17.7168C96.6426 17.7168 96.6425 17.7168 96.6423 17.7168C96.6421 17.7168 96.642 17.7168 96.6418 17.7168C96.6417 17.7168 96.6415 17.7168 96.6414 17.7168C96.6412 17.7168 96.641 17.7168 96.6409 17.7168C96.6407 17.7168 96.6406 17.7168 96.6404 17.7168C96.6403 17.7168 96.6401 17.7168 96.64 17.7168C96.6398 17.7168 96.6396 17.7168 96.6395 17.7168C96.6393 17.7168 96.6392 17.7168 96.639 17.7168C96.6389 17.7168 96.6387 17.7168 96.6385 17.7168C96.6384 17.7168 96.6382 17.7168 96.6381 17.7168C96.6379 17.7168 96.6378 17.7168 96.6376 17.7168C96.6375 17.7168 96.6373 17.7168 96.6371 17.7168C96.637 17.7168 96.6368 17.7168 96.6367 17.7168C96.6365 17.7168 96.6364 17.7168 96.6362 17.7168C96.636 17.7168 96.6359 17.7168 96.6357 17.7168C96.6356 17.7168 96.6354 17.7168 96.6353 17.7168C96.6351 17.7168 96.635 17.7168 96.6348 17.7168C96.6346 17.7168 96.6345 17.7168 96.6343 17.7168C96.6342 17.7168 96.634 17.7168 96.6339 17.7168C96.6337 17.7168 96.6335 17.7168 96.6334 17.7168C96.6332 17.7168 96.6331 17.7168 96.6329 17.7168C96.6328 17.7168 96.6326 17.7168 96.6325 17.7168C96.6323 17.7168 96.6321 17.7168 96.632 17.7168C96.6318 17.7168 96.6317 17.7168 96.6315 17.7168C96.6314 17.7168 96.6312 17.7168 96.631 17.7168C96.6309 17.7168 96.6307 17.7168 96.6306 17.7168C96.6304 17.7168 96.6303 17.7168 96.6301 17.7168C96.63 17.7168 96.6298 17.7168 96.6296 17.7168C96.6295 17.7168 96.6293 17.7168 96.6292 17.7168C96.629 17.7168 96.6289 17.7168 96.6287 17.7168C96.6285 17.7168 96.6284 17.7168 96.6282 17.7168C96.6281 17.7168 96.6279 17.7168 96.6278 17.7168C96.6276 17.7168 96.6275 17.7168 96.6273 17.7168C96.6271 17.7168 96.627 17.7168 96.6268 17.7168C96.6267 17.7168 96.6265 17.7168 96.6264 17.7168C96.6262 17.7168 96.626 17.7168 96.6259 17.7168C96.6257 17.7168 96.6256 17.7168 96.6254 17.7168C96.6253 17.7168 96.6251 17.7168 96.625 17.7168C96.6248 17.7168 96.6246 17.7168 96.6245 17.7168C96.6243 17.7168 96.6242 17.7168 96.624 17.7168C96.6239 17.7168 96.6237 17.7168 96.6235 17.7168C96.6234 17.7168 96.6232 17.7168 96.6231 17.7168C96.6229 17.7168 96.6228 17.7168 96.6226 17.7168C96.6225 17.7168 96.6223 17.7168 96.6221 17.7168C96.622 17.7168 96.6218 17.7168 96.6217 17.7168C96.6215 17.7168 96.6214 17.7168 96.6212 17.7168C96.621 17.7168 96.6209 17.7168 96.6207 17.7168C96.6206 17.7168 96.6204 17.7168 96.6203 17.7168C96.6201 17.7168 96.62 17.7168 96.6198 17.7168C96.6196 17.7168 96.6195 17.7168 96.6193 17.7168C96.6192 17.7168 96.619 17.7168 96.6189 17.7168C96.6187 17.7168 96.6185 17.7168 96.6184 17.7168C96.6182 17.7168 96.6181 17.7168 96.6179 17.7168C96.6178 17.7168 96.6176 17.7168 96.6175 17.7168C96.6173 17.7168 96.6171 17.7168 96.617 17.7168C96.6168 17.7168 96.6167 17.7168 96.6165 17.7168C96.6164 17.7168 96.6162 17.7168 96.616 17.7168C96.6159 17.7168 96.6157 17.7168 96.6156 17.7168C96.6154 17.7168 96.6153 17.7168 96.6151 17.7168C96.615 17.7168 96.6148 17.7168 96.6146 17.7168C96.6145 17.7168 96.6143 17.7168 96.6142 17.7168C96.614 17.7168 96.6139 17.7168 96.6137 17.7168C96.6135 17.7168 96.6134 17.7168 96.6132 17.7168C96.6131 17.7168 96.6129 17.7168 96.6128 17.7168C96.6126 17.7168 96.6125 17.7168 96.6123 17.7168C96.6121 17.7168 96.612 17.7168 96.6118 17.7168C96.6117 17.7168 96.6115 17.7168 96.6114 17.7168C96.6112 17.7168 96.611 17.7168 96.6109 17.7168C96.6107 17.7168 96.6106 17.7168 96.6104 17.7168C96.6103 17.7168 96.6101 17.7168 96.61 17.7168C96.6098 17.7168 96.6096 17.7168 96.6095 17.7168C96.6093 17.7168 96.6092 17.7168 96.609 17.7168C96.6089 17.7168 96.6087 17.7168 96.6085 17.7168C96.6084 17.7168 96.6082 17.7168 96.6081 17.7168C96.6079 17.7168 96.6078 17.7168 96.6076 17.7168C96.6075 17.7168 96.6073 17.7168 96.6071 17.7168C96.607 17.7168 96.6068 17.7168 96.6067 17.7168C96.6065 17.7168 96.6064 17.7168 96.6062 17.7168C96.606 17.7168 96.6059 17.7168 96.6057 17.7168C96.6056 17.7168 96.6054 17.7168 96.6053 17.7168C96.6051 17.7168 96.605 17.7168 96.6048 17.7168C96.6046 17.7168 96.6045 17.7168 96.6043 17.7168C96.6042 17.7168 96.604 17.7168 96.6039 17.7168C96.6037 17.7168 96.6035 17.7168 96.6034 17.7168C96.6032 17.7168 96.6031 17.7168 96.6029 17.7168C96.6028 17.7168 96.6026 17.7168 96.6025 17.7168C96.6023 17.7168 96.6021 17.7168 96.602 17.7168C96.6018 17.7168 96.6017 17.7168 96.6015 17.7168C96.6014 17.7168 96.6012 17.7168 96.601 17.7168C96.6009 17.7168 96.6007 17.7168 96.6006 17.7168C96.6004 17.7168 96.6003 17.7168 96.6001 17.7168C96.6 17.7168 96.5998 17.7168 96.5996 17.7168C96.5995 17.7168 96.5993 17.7168 96.5992 17.7168C96.599 17.7168 96.5989 17.7168 96.5987 17.7168C96.5985 17.7168 96.5984 17.7168 96.5982 17.7168C96.5981 17.7168 96.5979 17.7168 96.5978 17.7168C96.5976 17.7168 96.5975 17.7168 96.5973 17.7168C96.5971 17.7168 96.597 17.7168 96.5968 17.7168C96.5967 17.7168 96.5965 17.7168 96.5964 17.7168C96.5962 17.7168 96.596 17.7168 96.5959 17.7168C96.5957 17.7168 96.5956 17.7168 96.5954 17.7168C96.5953 17.7168 96.5951 17.7168 96.595 17.7168C96.5948 17.7168 96.5946 17.7168 96.5945 17.7168C96.5943 17.7168 96.5942 17.7168 96.594 17.7168C96.5939 17.7168 96.5937 17.7168 96.5935 17.7168C96.5934 17.7168 96.5932 17.7168 96.5931 17.7168C96.5929 17.7168 96.5928 17.7168 96.5926 17.7168C96.5925 17.7168 96.5923 17.7168 96.5921 17.7168C96.592 17.7168 96.5918 17.7168 96.5917 17.7168C96.5915 17.7168 96.5914 17.7168 96.5912 17.7168C96.591 17.7168 96.5909 17.7168 96.5907 17.7168C96.5906 17.7168 96.5904 17.7168 96.5903 17.7168C96.5901 17.7168 96.59 17.7168 96.5898 17.7168C96.5896 17.7168 96.5895 17.7168 96.5893 17.7168C96.5892 17.7168 96.589 17.7168 96.5889 17.7168C96.5887 17.7168 96.5885 17.7168 96.5884 17.7168C96.5882 17.7168 96.5881 17.7168 96.5879 17.7168C96.5878 17.7168 96.5876 17.7168 96.5875 17.7168C96.5873 17.7168 96.5871 17.7168 96.587 17.7168C96.5868 17.7168 96.5867 17.7168 96.5865 17.7168C96.5864 17.7168 96.5862 17.7168 96.586 17.7168C96.5859 17.7168 96.5857 17.7168 96.5856 17.7168C96.5854 17.7168 96.5853 17.7168 96.5851 17.7168C96.585 17.7168 96.5848 17.7168 96.5846 17.7168C96.5845 17.7168 96.5843 17.7168 96.5842 17.7168C96.584 17.7168 96.5839 17.7168 96.5837 17.7168C96.5835 17.7168 96.5834 17.7168 96.5832 17.7168C96.5831 17.7168 96.5829 17.7168 96.5828 17.7168C96.5826 17.7168 96.5825 17.7168 96.5823 17.7168C96.5821 17.7168 96.582 17.7168 96.5818 17.7168C96.5817 17.7168 96.5815 17.7168 96.5814 17.7168C96.5812 17.7168 96.581 17.7168 96.5809 17.7168C96.5807 17.7168 96.5806 17.7168 96.5804 17.7168C96.5803 17.7168 96.5801 17.7168 96.58 17.7168C96.5798 17.7168 96.5796 17.7168 96.5795 17.7168C96.5793 17.7168 96.5792 17.7168 96.579 17.7168C96.5789 17.7168 96.5787 17.7168 96.5785 17.7168C96.5784 17.7168 96.5782 17.7168 96.5781 17.7168C96.5779 17.7168 96.5778 17.7168 96.5776 17.7168C96.5775 17.7168 96.5773 17.7168 96.5771 17.7168C96.577 17.7168 96.5768 17.7168 96.5767 17.7168C96.5765 17.7168 96.5764 17.7168 96.5762 17.7168C96.576 17.7168 96.5759 17.7168 96.5757 17.7168C96.5756 17.7168 96.5754 17.7168 96.5753 17.7168C96.5751 17.7168 96.575 17.7168 96.5748 17.7168C96.5746 17.7168 96.5745 17.7168 96.5743 17.7168C96.5742 17.7168 96.574 17.7168 96.5739 17.7168C96.5737 17.7168 96.5735 17.7168 96.5734 17.7168C96.5732 17.7168 96.5731 17.7168 96.5729 17.7168C96.5728 17.7168 96.5726 17.7168 96.5725 17.7168C96.5723 17.7168 96.5721 17.7168 96.572 17.7168C96.5718 17.7168 96.5717 17.7168 96.5715 17.7168C96.5714 17.7168 96.5712 17.7168 96.571 17.7168C96.5709 17.7168 96.5707 17.7168 96.5706 17.7168C96.5704 17.7168 96.5703 17.7168 96.5701 17.7168C96.57 17.7168 96.5698 17.7168 96.5696 17.7168C96.5695 17.7168 96.5693 17.7168 96.5692 17.7168C96.569 17.7168 96.5689 17.7168 96.5687 17.7168C96.5685 17.7168 96.5684 17.7168 96.5682 17.7168C96.5681 17.7168 96.5679 17.7168 96.5678 17.7168C96.5676 17.7168 96.5675 17.7168 96.5673 17.7168C96.5671 17.7168 96.567 17.7168 96.5668 17.7168C96.5667 17.7168 96.5665 17.7168 96.5664 17.7168C96.5662 17.7168 96.566 17.7168 96.5659 17.7168C96.5657 17.7168 96.5656 17.7168 96.5654 17.7168C96.5653 17.7168 96.5651 17.7168 96.565 17.7168C96.5648 17.7168 96.5646 17.7168 96.5645 17.7168C96.5643 17.7168 96.5642 17.7168 96.564 17.7168C96.5639 17.7168 96.5637 17.7168 96.5635 17.7168C96.5634 17.7168 96.5632 17.7168 96.5631 17.7168C96.5629 17.7168 96.5628 17.7168 96.5626 17.7168C96.5625 17.7168 96.5623 17.7168 96.5621 17.7168C96.562 17.7168 96.5618 17.7168 96.5617 17.7168C96.5615 17.7168 96.5614 17.7168 96.5612 17.7168C96.561 17.7168 96.5609 17.7168 96.5607 17.7168C96.5606 17.7168 96.5604 17.7168 96.5603 17.7168C96.5601 17.7168 96.56 17.7168 96.5598 17.7168C96.5596 17.7168 96.5595 17.7168 96.5593 17.7168C96.5592 17.7168 96.559 17.7168 96.5589 17.7168C96.5587 17.7168 96.5585 17.7168 96.5584 17.7168C96.5582 17.7168 96.5581 17.7168 96.5579 17.7168C96.5578 17.7168 96.5576 17.7168 96.5575 17.7168C96.5573 17.7168 96.5571 17.7168 96.557 17.7168C96.5568 17.7168 96.5567 17.7168 96.5565 17.7168C96.5564 17.7168 96.5562 17.7168 96.556 17.7168C96.5559 17.7168 96.5557 17.7168 96.5556 17.7168C96.5554 17.7168 96.5553 17.7168 96.5551 17.7168C96.555 17.7168 96.5548 17.7168 96.5546 17.7168C96.5545 17.7168 96.5543 17.7168 96.5542 17.7168C96.554 17.7168 96.5539 17.7168 96.5537 17.7168C96.5535 17.7168 96.5534 17.7168 96.5532 17.7168C96.5531 17.7168 96.5529 17.7168 96.5528 17.7168C96.5526 17.7168 96.5525 17.7168 96.5523 17.7168C96.5521 17.7168 96.552 17.7168 96.5518 17.7168C96.5517 17.7168 96.5515 17.7168 96.5514 17.7168C96.5512 17.7168 96.551 17.7168 96.5509 17.7168C96.5507 17.7168 96.5506 17.7168 96.5504 17.7168C96.5503 17.7168 96.5501 17.7168 96.55 17.7168C96.5498 17.7168 96.5496 17.7168 96.5495 17.7168C96.5493 17.7168 96.5492 17.7168 96.549 17.7168C96.5489 17.7168 96.5487 17.7168 96.5485 17.7168C96.5484 17.7168 96.5482 17.7168 96.5481 17.7168C96.5479 17.7168 96.5478 17.7168 96.5476 17.7168C96.5475 17.7168 96.5473 17.7168 96.5471 17.7168C96.547 17.7168 96.5468 17.7168 96.5467 17.7168C96.5465 17.7168 96.5464 17.7168 96.5462 17.7168C96.546 17.7168 96.5459 17.7168 96.5457 17.7168C96.5456 17.7168 96.5454 17.7168 96.5453 17.7168C96.5451 17.7168 96.545 17.7168 96.5448 17.7168C96.5446 17.7168 96.5445 17.7168 96.5443 17.7168C96.5442 17.7168 96.544 17.7168 96.5439 17.7168C96.5437 17.7168 96.5435 17.7168 96.5434 17.7168C96.5432 17.7168 96.5431 17.7168 96.5429 17.7168C96.5428 17.7168 96.5426 17.7168 96.5425 17.7168C96.5423 17.7168 96.5421 17.7168 96.542 17.7168C96.5418 17.7168 96.5417 17.7168 96.5415 17.7168C96.5414 17.7168 96.5412 17.7168 96.541 17.7168C96.5409 17.7168 96.5407 17.7168 96.5406 17.7168C96.5404 17.7168 96.5403 17.7168 96.5401 17.7168C96.54 17.7168 96.5398 17.7168 96.5396 17.7168C96.5395 17.7168 96.5393 17.7168 96.5392 17.7168C96.539 17.7168 96.5389 17.7168 96.5387 17.7168C96.5385 17.7168 96.5384 17.7168 96.5382 17.7168C96.5381 17.7168 96.5379 17.7168 96.5378 17.7168C96.5376 17.7168 96.5375 17.7168 96.5373 17.7168C96.5371 17.7168 96.537 17.7168 96.5368 17.7168C96.5367 17.7168 96.5365 17.7168 96.5364 17.7168C96.5362 17.7168 96.536 17.7168 96.5359 17.7168C96.5357 17.7168 96.5356 17.7168 96.5354 17.7168C96.5353 17.7168 96.5351 17.7168 96.535 17.7168C96.5348 17.7168 96.5346 17.7168 96.5345 17.7168C96.5343 17.7168 96.5342 17.7168 96.534 17.7168C96.5339 17.7168 96.5337 17.7168 96.5335 17.7168C96.5334 17.7168 96.5332 17.7168 96.5331 17.7168C96.5329 17.7168 96.5328 17.7168 96.5326 17.7168C96.5325 17.7168 96.5323 17.7168 96.5321 17.7168C96.532 17.7168 96.5318 17.7168 96.5317 17.7168C96.5315 17.7168 96.5314 17.7168 96.5312 17.7168C96.531 17.7168 96.5309 17.7168 96.5307 17.7168C96.5306 17.7168 96.5304 17.7168 96.5303 17.7168C96.5301 17.7168 96.53 17.7168 96.5298 17.7168C96.5296 17.7168 96.5295 17.7168 96.5293 17.7168C96.5292 17.7168 96.529 17.7168 96.5289 17.7168C96.5287 17.7168 96.5285 17.7168 96.5284 17.7168C96.5282 17.7168 96.5281 17.7168 96.5279 17.7168C96.5278 17.7168 96.5276 17.7168 96.5275 17.7168C96.5273 17.7168 96.5271 17.7168 96.527 17.7168C96.5268 17.7168 96.5267 17.7168 96.5265 17.7168C96.5264 17.7168 96.5262 17.7168 96.526 17.7168C96.5259 17.7168 96.5257 17.7168 96.5256 17.7168C96.5254 17.7168 96.5253 17.7168 96.5251 17.7168C96.525 17.7168 96.5248 17.7168 96.5246 17.7168C96.5245 17.7168 96.5243 17.7168 96.5242 17.7168C96.524 17.7168 96.5239 17.7168 96.5237 17.7168C96.5235 17.7168 96.5234 17.7168 96.5232 17.7168C96.5231 17.7168 96.5229 17.7168 96.5228 17.7168C96.5226 17.7168 96.5225 17.7168 96.5223 17.7168C96.5221 17.7168 96.522 17.7168 96.5218 17.7168C96.5217 17.7168 96.5215 17.7168 96.5214 17.7168C96.5212 17.7168 96.521 17.7168 96.5209 17.7168C96.5207 17.7168 96.5206 17.7168 96.5204 17.7168C96.5203 17.7168 96.5201 17.7168 96.52 17.7168C96.5198 17.7168 96.5196 17.7168 96.5195 17.7168C96.5193 17.7168 96.5192 17.7168 96.519 17.7168C96.5189 17.7168 96.5187 17.7168 96.5185 17.7168C96.5184 17.7168 96.5182 17.7168 96.5181 17.7168C96.5179 17.7168 96.5178 17.7168 96.5176 17.7168C96.5175 17.7168 96.5173 17.7168 96.5171 17.7168C96.517 17.7168 96.5168 17.7168 96.5167 17.7168C96.5165 17.7168 96.5164 17.7168 96.5162 17.7168C96.516 17.7168 96.5159 17.7168 96.5157 17.7168C96.5156 17.7168 96.5154 17.7168 96.5153 17.7168C96.5151 17.7168 96.515 17.7168 96.5148 17.7168C96.5146 17.7168 96.5145 17.7168 96.5143 17.7168C96.5142 17.7168 96.514 17.7168 96.5139 17.7168C96.5137 17.7168 96.5135 17.7168 96.5134 17.7168C96.5132 17.7168 96.5131 17.7168 96.5129 17.7168C96.5128 17.7168 96.5126 17.7168 96.5125 17.7168C96.5123 17.7168 96.5121 17.7168 96.512 17.7168C96.5118 17.7168 96.5117 17.7168 96.5115 17.7168C96.5114 17.7168 96.5112 17.7168 96.511 17.7168C96.5109 17.7168 96.5107 17.7168 96.5106 17.7168C96.5104 17.7168 96.5103 17.7168 96.5101 17.7168C96.51 17.7168 96.5098 17.7168 96.5096 17.7168C96.5095 17.7168 96.5093 17.7168 96.5092 17.7168C96.509 17.7168 96.5089 17.7168 96.5087 17.7168C96.5085 17.7168 96.5084 17.7168 96.5082 17.7168C96.5081 17.7168 96.5079 17.7168 96.5078 17.7168C96.5076 17.7168 96.5075 17.7168 96.5073 17.7168C96.5071 17.7168 96.507 17.7168 96.5068 17.7168C96.5067 17.7168 96.5065 17.7168 96.5064 17.7168C96.5062 17.7168 96.506 17.7168 96.5059 17.7168C96.5057 17.7168 96.5056 17.7168 96.5054 17.7168C96.5053 17.7168 96.5051 17.7168 96.505 17.7168C96.5048 17.7168 96.5046 17.7168 96.5045 17.7168C96.5043 17.7168 96.5042 17.7168 96.504 17.7168C96.5039 17.7168 96.5037 17.7168 96.5035 17.7168C96.5034 17.7168 96.5032 17.7168 96.5031 17.7168C96.5029 17.7168 96.5028 17.7168 96.5026 17.7168C96.5025 17.7168 96.5023 17.7168 96.5021 17.7168C96.502 17.7168 96.5018 17.7168 96.5017 17.7168C96.5015 17.7168 96.5014 17.7168 96.5012 17.7168C96.501 17.7168 96.5009 17.7168 96.5007 17.7168C96.5006 17.7168 96.5004 17.7168 96.5003 17.7168C96.5001 17.7168 96.5 17.7168 96.4998 17.7168C96.4996 17.7168 96.4995 17.7168 96.4993 17.7168C96.4992 17.7168 96.499 17.7168 96.4989 17.7168C96.4987 17.7168 96.4985 17.7168 96.4984 17.7168C96.4982 17.7168 96.4981 17.7168 96.4979 17.7168C96.4978 17.7168 96.4976 17.7168 96.4975 17.7168C96.4973 17.7168 96.4971 17.7168 96.497 17.7168C96.4968 17.7168 96.4967 17.7168 96.4965 17.7168C96.4964 17.7168 96.4962 17.7168 96.496 17.7168C96.4959 17.7168 96.4957 17.7168 96.4956 17.7168C96.4954 17.7168 96.4953 17.7168 96.4951 17.7168C96.495 17.7168 96.4948 17.7168 96.4946 17.7168C96.4945 17.7168 96.4943 17.7168 96.4942 17.7168C96.494 17.7168 96.4939 17.7168 96.4937 17.7168C96.4935 17.7168 96.4934 17.7168 96.4932 17.7168C96.4931 17.7168 96.4929 17.7168 96.4928 17.7168C96.4926 17.7168 96.4925 17.7168 96.4923 17.7168C96.4921 17.7168 96.492 17.7168 96.4918 17.7168C96.4917 17.7168 96.4915 17.7168 96.4914 17.7168C96.4912 17.7168 96.491 17.7168 96.4909 17.7168C96.4907 17.7168 96.4906 17.7168 96.4904 17.7168C96.4903 17.7168 96.4901 17.7168 96.49 17.7168C96.4898 17.7168 96.4896 17.7168 96.4895 17.7168C96.4893 17.7168 96.4892 17.7168 96.489 17.7168C96.4889 17.7168 96.4887 17.7168 96.4885 17.7168C96.4884 17.7168 96.4882 17.7168 96.4881 17.7168C96.4879 17.7168 96.4878 17.7168 96.4876 17.7168C96.4875 17.7168 96.4873 17.7168 96.4871 17.7168C96.487 17.7168 96.4868 17.7168 96.4867 17.7168C96.4865 17.7168 96.4864 17.7168 96.4862 17.7168C96.486 17.7168 96.4859 17.7168 96.4857 17.7168C96.4856 17.7168 96.4854 17.7168 96.4853 17.7168C96.4851 17.7168 96.485 17.7168 96.4848 17.7168C96.4846 17.7168 96.4845 17.7168 96.4843 17.7168C96.4842 17.7168 96.484 17.7168 96.4839 17.7168C96.4837 17.7168 96.4835 17.7168 96.4834 17.7168C96.4832 17.7168 96.4831 17.7168 96.4829 17.7168C96.4828 17.7168 96.4826 17.7168 96.4825 17.7168C96.4823 17.7168 96.4821 17.7168 96.482 17.7168C96.4818 17.7168 96.4817 17.7168 96.4815 17.7168C96.4814 17.7168 96.4812 17.7168 96.481 17.7168C96.4809 17.7168 96.4807 17.7168 96.4806 17.7168C96.4804 17.7168 96.4803 17.7168 96.4801 17.7168V19.7168C96.4803 19.7168 96.4804 19.7168 96.4806 19.7168C96.4807 19.7168 96.4809 19.7168 96.481 19.7168C96.4812 19.7168 96.4814 19.7168 96.4815 19.7168C96.4817 19.7168 96.4818 19.7168 96.482 19.7168C96.4821 19.7168 96.4823 19.7168 96.4825 19.7168C96.4826 19.7168 96.4828 19.7168 96.4829 19.7168C96.4831 19.7168 96.4832 19.7168 96.4834 19.7168C96.4835 19.7168 96.4837 19.7168 96.4839 19.7168C96.484 19.7168 96.4842 19.7168 96.4843 19.7168C96.4845 19.7168 96.4846 19.7168 96.4848 19.7168C96.485 19.7168 96.4851 19.7168 96.4853 19.7168C96.4854 19.7168 96.4856 19.7168 96.4857 19.7168C96.4859 19.7168 96.486 19.7168 96.4862 19.7168C96.4864 19.7168 96.4865 19.7168 96.4867 19.7168C96.4868 19.7168 96.487 19.7168 96.4871 19.7168C96.4873 19.7168 96.4875 19.7168 96.4876 19.7168C96.4878 19.7168 96.4879 19.7168 96.4881 19.7168C96.4882 19.7168 96.4884 19.7168 96.4885 19.7168C96.4887 19.7168 96.4889 19.7168 96.489 19.7168C96.4892 19.7168 96.4893 19.7168 96.4895 19.7168C96.4896 19.7168 96.4898 19.7168 96.49 19.7168C96.4901 19.7168 96.4903 19.7168 96.4904 19.7168C96.4906 19.7168 96.4907 19.7168 96.4909 19.7168C96.491 19.7168 96.4912 19.7168 96.4914 19.7168C96.4915 19.7168 96.4917 19.7168 96.4918 19.7168C96.492 19.7168 96.4921 19.7168 96.4923 19.7168C96.4925 19.7168 96.4926 19.7168 96.4928 19.7168C96.4929 19.7168 96.4931 19.7168 96.4932 19.7168C96.4934 19.7168 96.4935 19.7168 96.4937 19.7168C96.4939 19.7168 96.494 19.7168 96.4942 19.7168C96.4943 19.7168 96.4945 19.7168 96.4946 19.7168C96.4948 19.7168 96.495 19.7168 96.4951 19.7168C96.4953 19.7168 96.4954 19.7168 96.4956 19.7168C96.4957 19.7168 96.4959 19.7168 96.496 19.7168C96.4962 19.7168 96.4964 19.7168 96.4965 19.7168C96.4967 19.7168 96.4968 19.7168 96.497 19.7168C96.4971 19.7168 96.4973 19.7168 96.4975 19.7168C96.4976 19.7168 96.4978 19.7168 96.4979 19.7168C96.4981 19.7168 96.4982 19.7168 96.4984 19.7168C96.4985 19.7168 96.4987 19.7168 96.4989 19.7168C96.499 19.7168 96.4992 19.7168 96.4993 19.7168C96.4995 19.7168 96.4996 19.7168 96.4998 19.7168C96.5 19.7168 96.5001 19.7168 96.5003 19.7168C96.5004 19.7168 96.5006 19.7168 96.5007 19.7168C96.5009 19.7168 96.501 19.7168 96.5012 19.7168C96.5014 19.7168 96.5015 19.7168 96.5017 19.7168C96.5018 19.7168 96.502 19.7168 96.5021 19.7168C96.5023 19.7168 96.5025 19.7168 96.5026 19.7168C96.5028 19.7168 96.5029 19.7168 96.5031 19.7168C96.5032 19.7168 96.5034 19.7168 96.5035 19.7168C96.5037 19.7168 96.5039 19.7168 96.504 19.7168C96.5042 19.7168 96.5043 19.7168 96.5045 19.7168C96.5046 19.7168 96.5048 19.7168 96.505 19.7168C96.5051 19.7168 96.5053 19.7168 96.5054 19.7168C96.5056 19.7168 96.5057 19.7168 96.5059 19.7168C96.506 19.7168 96.5062 19.7168 96.5064 19.7168C96.5065 19.7168 96.5067 19.7168 96.5068 19.7168C96.507 19.7168 96.5071 19.7168 96.5073 19.7168C96.5075 19.7168 96.5076 19.7168 96.5078 19.7168C96.5079 19.7168 96.5081 19.7168 96.5082 19.7168C96.5084 19.7168 96.5085 19.7168 96.5087 19.7168C96.5089 19.7168 96.509 19.7168 96.5092 19.7168C96.5093 19.7168 96.5095 19.7168 96.5096 19.7168C96.5098 19.7168 96.51 19.7168 96.5101 19.7168C96.5103 19.7168 96.5104 19.7168 96.5106 19.7168C96.5107 19.7168 96.5109 19.7168 96.511 19.7168C96.5112 19.7168 96.5114 19.7168 96.5115 19.7168C96.5117 19.7168 96.5118 19.7168 96.512 19.7168C96.5121 19.7168 96.5123 19.7168 96.5125 19.7168C96.5126 19.7168 96.5128 19.7168 96.5129 19.7168C96.5131 19.7168 96.5132 19.7168 96.5134 19.7168C96.5135 19.7168 96.5137 19.7168 96.5139 19.7168C96.514 19.7168 96.5142 19.7168 96.5143 19.7168C96.5145 19.7168 96.5146 19.7168 96.5148 19.7168C96.515 19.7168 96.5151 19.7168 96.5153 19.7168C96.5154 19.7168 96.5156 19.7168 96.5157 19.7168C96.5159 19.7168 96.516 19.7168 96.5162 19.7168C96.5164 19.7168 96.5165 19.7168 96.5167 19.7168C96.5168 19.7168 96.517 19.7168 96.5171 19.7168C96.5173 19.7168 96.5175 19.7168 96.5176 19.7168C96.5178 19.7168 96.5179 19.7168 96.5181 19.7168C96.5182 19.7168 96.5184 19.7168 96.5185 19.7168C96.5187 19.7168 96.5189 19.7168 96.519 19.7168C96.5192 19.7168 96.5193 19.7168 96.5195 19.7168C96.5196 19.7168 96.5198 19.7168 96.52 19.7168C96.5201 19.7168 96.5203 19.7168 96.5204 19.7168C96.5206 19.7168 96.5207 19.7168 96.5209 19.7168C96.521 19.7168 96.5212 19.7168 96.5214 19.7168C96.5215 19.7168 96.5217 19.7168 96.5218 19.7168C96.522 19.7168 96.5221 19.7168 96.5223 19.7168C96.5225 19.7168 96.5226 19.7168 96.5228 19.7168C96.5229 19.7168 96.5231 19.7168 96.5232 19.7168C96.5234 19.7168 96.5235 19.7168 96.5237 19.7168C96.5239 19.7168 96.524 19.7168 96.5242 19.7168C96.5243 19.7168 96.5245 19.7168 96.5246 19.7168C96.5248 19.7168 96.525 19.7168 96.5251 19.7168C96.5253 19.7168 96.5254 19.7168 96.5256 19.7168C96.5257 19.7168 96.5259 19.7168 96.526 19.7168C96.5262 19.7168 96.5264 19.7168 96.5265 19.7168C96.5267 19.7168 96.5268 19.7168 96.527 19.7168C96.5271 19.7168 96.5273 19.7168 96.5275 19.7168C96.5276 19.7168 96.5278 19.7168 96.5279 19.7168C96.5281 19.7168 96.5282 19.7168 96.5284 19.7168C96.5285 19.7168 96.5287 19.7168 96.5289 19.7168C96.529 19.7168 96.5292 19.7168 96.5293 19.7168C96.5295 19.7168 96.5296 19.7168 96.5298 19.7168C96.53 19.7168 96.5301 19.7168 96.5303 19.7168C96.5304 19.7168 96.5306 19.7168 96.5307 19.7168C96.5309 19.7168 96.531 19.7168 96.5312 19.7168C96.5314 19.7168 96.5315 19.7168 96.5317 19.7168C96.5318 19.7168 96.532 19.7168 96.5321 19.7168C96.5323 19.7168 96.5325 19.7168 96.5326 19.7168C96.5328 19.7168 96.5329 19.7168 96.5331 19.7168C96.5332 19.7168 96.5334 19.7168 96.5335 19.7168C96.5337 19.7168 96.5339 19.7168 96.534 19.7168C96.5342 19.7168 96.5343 19.7168 96.5345 19.7168C96.5346 19.7168 96.5348 19.7168 96.535 19.7168C96.5351 19.7168 96.5353 19.7168 96.5354 19.7168C96.5356 19.7168 96.5357 19.7168 96.5359 19.7168C96.536 19.7168 96.5362 19.7168 96.5364 19.7168C96.5365 19.7168 96.5367 19.7168 96.5368 19.7168C96.537 19.7168 96.5371 19.7168 96.5373 19.7168C96.5375 19.7168 96.5376 19.7168 96.5378 19.7168C96.5379 19.7168 96.5381 19.7168 96.5382 19.7168C96.5384 19.7168 96.5385 19.7168 96.5387 19.7168C96.5389 19.7168 96.539 19.7168 96.5392 19.7168C96.5393 19.7168 96.5395 19.7168 96.5396 19.7168C96.5398 19.7168 96.54 19.7168 96.5401 19.7168C96.5403 19.7168 96.5404 19.7168 96.5406 19.7168C96.5407 19.7168 96.5409 19.7168 96.541 19.7168C96.5412 19.7168 96.5414 19.7168 96.5415 19.7168C96.5417 19.7168 96.5418 19.7168 96.542 19.7168C96.5421 19.7168 96.5423 19.7168 96.5425 19.7168C96.5426 19.7168 96.5428 19.7168 96.5429 19.7168C96.5431 19.7168 96.5432 19.7168 96.5434 19.7168C96.5435 19.7168 96.5437 19.7168 96.5439 19.7168C96.544 19.7168 96.5442 19.7168 96.5443 19.7168C96.5445 19.7168 96.5446 19.7168 96.5448 19.7168C96.545 19.7168 96.5451 19.7168 96.5453 19.7168C96.5454 19.7168 96.5456 19.7168 96.5457 19.7168C96.5459 19.7168 96.546 19.7168 96.5462 19.7168C96.5464 19.7168 96.5465 19.7168 96.5467 19.7168C96.5468 19.7168 96.547 19.7168 96.5471 19.7168C96.5473 19.7168 96.5475 19.7168 96.5476 19.7168C96.5478 19.7168 96.5479 19.7168 96.5481 19.7168C96.5482 19.7168 96.5484 19.7168 96.5485 19.7168C96.5487 19.7168 96.5489 19.7168 96.549 19.7168C96.5492 19.7168 96.5493 19.7168 96.5495 19.7168C96.5496 19.7168 96.5498 19.7168 96.55 19.7168C96.5501 19.7168 96.5503 19.7168 96.5504 19.7168C96.5506 19.7168 96.5507 19.7168 96.5509 19.7168C96.551 19.7168 96.5512 19.7168 96.5514 19.7168C96.5515 19.7168 96.5517 19.7168 96.5518 19.7168C96.552 19.7168 96.5521 19.7168 96.5523 19.7168C96.5525 19.7168 96.5526 19.7168 96.5528 19.7168C96.5529 19.7168 96.5531 19.7168 96.5532 19.7168C96.5534 19.7168 96.5535 19.7168 96.5537 19.7168C96.5539 19.7168 96.554 19.7168 96.5542 19.7168C96.5543 19.7168 96.5545 19.7168 96.5546 19.7168C96.5548 19.7168 96.555 19.7168 96.5551 19.7168C96.5553 19.7168 96.5554 19.7168 96.5556 19.7168C96.5557 19.7168 96.5559 19.7168 96.556 19.7168C96.5562 19.7168 96.5564 19.7168 96.5565 19.7168C96.5567 19.7168 96.5568 19.7168 96.557 19.7168C96.5571 19.7168 96.5573 19.7168 96.5575 19.7168C96.5576 19.7168 96.5578 19.7168 96.5579 19.7168C96.5581 19.7168 96.5582 19.7168 96.5584 19.7168C96.5585 19.7168 96.5587 19.7168 96.5589 19.7168C96.559 19.7168 96.5592 19.7168 96.5593 19.7168C96.5595 19.7168 96.5596 19.7168 96.5598 19.7168C96.56 19.7168 96.5601 19.7168 96.5603 19.7168C96.5604 19.7168 96.5606 19.7168 96.5607 19.7168C96.5609 19.7168 96.561 19.7168 96.5612 19.7168C96.5614 19.7168 96.5615 19.7168 96.5617 19.7168C96.5618 19.7168 96.562 19.7168 96.5621 19.7168C96.5623 19.7168 96.5625 19.7168 96.5626 19.7168C96.5628 19.7168 96.5629 19.7168 96.5631 19.7168C96.5632 19.7168 96.5634 19.7168 96.5635 19.7168C96.5637 19.7168 96.5639 19.7168 96.564 19.7168C96.5642 19.7168 96.5643 19.7168 96.5645 19.7168C96.5646 19.7168 96.5648 19.7168 96.565 19.7168C96.5651 19.7168 96.5653 19.7168 96.5654 19.7168C96.5656 19.7168 96.5657 19.7168 96.5659 19.7168C96.566 19.7168 96.5662 19.7168 96.5664 19.7168C96.5665 19.7168 96.5667 19.7168 96.5668 19.7168C96.567 19.7168 96.5671 19.7168 96.5673 19.7168C96.5675 19.7168 96.5676 19.7168 96.5678 19.7168C96.5679 19.7168 96.5681 19.7168 96.5682 19.7168C96.5684 19.7168 96.5685 19.7168 96.5687 19.7168C96.5689 19.7168 96.569 19.7168 96.5692 19.7168C96.5693 19.7168 96.5695 19.7168 96.5696 19.7168C96.5698 19.7168 96.57 19.7168 96.5701 19.7168C96.5703 19.7168 96.5704 19.7168 96.5706 19.7168C96.5707 19.7168 96.5709 19.7168 96.571 19.7168C96.5712 19.7168 96.5714 19.7168 96.5715 19.7168C96.5717 19.7168 96.5718 19.7168 96.572 19.7168C96.5721 19.7168 96.5723 19.7168 96.5725 19.7168C96.5726 19.7168 96.5728 19.7168 96.5729 19.7168C96.5731 19.7168 96.5732 19.7168 96.5734 19.7168C96.5735 19.7168 96.5737 19.7168 96.5739 19.7168C96.574 19.7168 96.5742 19.7168 96.5743 19.7168C96.5745 19.7168 96.5746 19.7168 96.5748 19.7168C96.575 19.7168 96.5751 19.7168 96.5753 19.7168C96.5754 19.7168 96.5756 19.7168 96.5757 19.7168C96.5759 19.7168 96.576 19.7168 96.5762 19.7168C96.5764 19.7168 96.5765 19.7168 96.5767 19.7168C96.5768 19.7168 96.577 19.7168 96.5771 19.7168C96.5773 19.7168 96.5775 19.7168 96.5776 19.7168C96.5778 19.7168 96.5779 19.7168 96.5781 19.7168C96.5782 19.7168 96.5784 19.7168 96.5785 19.7168C96.5787 19.7168 96.5789 19.7168 96.579 19.7168C96.5792 19.7168 96.5793 19.7168 96.5795 19.7168C96.5796 19.7168 96.5798 19.7168 96.58 19.7168C96.5801 19.7168 96.5803 19.7168 96.5804 19.7168C96.5806 19.7168 96.5807 19.7168 96.5809 19.7168C96.581 19.7168 96.5812 19.7168 96.5814 19.7168C96.5815 19.7168 96.5817 19.7168 96.5818 19.7168C96.582 19.7168 96.5821 19.7168 96.5823 19.7168C96.5825 19.7168 96.5826 19.7168 96.5828 19.7168C96.5829 19.7168 96.5831 19.7168 96.5832 19.7168C96.5834 19.7168 96.5835 19.7168 96.5837 19.7168C96.5839 19.7168 96.584 19.7168 96.5842 19.7168C96.5843 19.7168 96.5845 19.7168 96.5846 19.7168C96.5848 19.7168 96.585 19.7168 96.5851 19.7168C96.5853 19.7168 96.5854 19.7168 96.5856 19.7168C96.5857 19.7168 96.5859 19.7168 96.586 19.7168C96.5862 19.7168 96.5864 19.7168 96.5865 19.7168C96.5867 19.7168 96.5868 19.7168 96.587 19.7168C96.5871 19.7168 96.5873 19.7168 96.5875 19.7168C96.5876 19.7168 96.5878 19.7168 96.5879 19.7168C96.5881 19.7168 96.5882 19.7168 96.5884 19.7168C96.5885 19.7168 96.5887 19.7168 96.5889 19.7168C96.589 19.7168 96.5892 19.7168 96.5893 19.7168C96.5895 19.7168 96.5896 19.7168 96.5898 19.7168C96.59 19.7168 96.5901 19.7168 96.5903 19.7168C96.5904 19.7168 96.5906 19.7168 96.5907 19.7168C96.5909 19.7168 96.591 19.7168 96.5912 19.7168C96.5914 19.7168 96.5915 19.7168 96.5917 19.7168C96.5918 19.7168 96.592 19.7168 96.5921 19.7168C96.5923 19.7168 96.5925 19.7168 96.5926 19.7168C96.5928 19.7168 96.5929 19.7168 96.5931 19.7168C96.5932 19.7168 96.5934 19.7168 96.5935 19.7168C96.5937 19.7168 96.5939 19.7168 96.594 19.7168C96.5942 19.7168 96.5943 19.7168 96.5945 19.7168C96.5946 19.7168 96.5948 19.7168 96.595 19.7168C96.5951 19.7168 96.5953 19.7168 96.5954 19.7168C96.5956 19.7168 96.5957 19.7168 96.5959 19.7168C96.596 19.7168 96.5962 19.7168 96.5964 19.7168C96.5965 19.7168 96.5967 19.7168 96.5968 19.7168C96.597 19.7168 96.5971 19.7168 96.5973 19.7168C96.5975 19.7168 96.5976 19.7168 96.5978 19.7168C96.5979 19.7168 96.5981 19.7168 96.5982 19.7168C96.5984 19.7168 96.5985 19.7168 96.5987 19.7168C96.5989 19.7168 96.599 19.7168 96.5992 19.7168C96.5993 19.7168 96.5995 19.7168 96.5996 19.7168C96.5998 19.7168 96.6 19.7168 96.6001 19.7168C96.6003 19.7168 96.6004 19.7168 96.6006 19.7168C96.6007 19.7168 96.6009 19.7168 96.601 19.7168C96.6012 19.7168 96.6014 19.7168 96.6015 19.7168C96.6017 19.7168 96.6018 19.7168 96.602 19.7168C96.6021 19.7168 96.6023 19.7168 96.6025 19.7168C96.6026 19.7168 96.6028 19.7168 96.6029 19.7168C96.6031 19.7168 96.6032 19.7168 96.6034 19.7168C96.6035 19.7168 96.6037 19.7168 96.6039 19.7168C96.604 19.7168 96.6042 19.7168 96.6043 19.7168C96.6045 19.7168 96.6046 19.7168 96.6048 19.7168C96.605 19.7168 96.6051 19.7168 96.6053 19.7168C96.6054 19.7168 96.6056 19.7168 96.6057 19.7168C96.6059 19.7168 96.606 19.7168 96.6062 19.7168C96.6064 19.7168 96.6065 19.7168 96.6067 19.7168C96.6068 19.7168 96.607 19.7168 96.6071 19.7168C96.6073 19.7168 96.6075 19.7168 96.6076 19.7168C96.6078 19.7168 96.6079 19.7168 96.6081 19.7168C96.6082 19.7168 96.6084 19.7168 96.6085 19.7168C96.6087 19.7168 96.6089 19.7168 96.609 19.7168C96.6092 19.7168 96.6093 19.7168 96.6095 19.7168C96.6096 19.7168 96.6098 19.7168 96.61 19.7168C96.6101 19.7168 96.6103 19.7168 96.6104 19.7168C96.6106 19.7168 96.6107 19.7168 96.6109 19.7168C96.611 19.7168 96.6112 19.7168 96.6114 19.7168C96.6115 19.7168 96.6117 19.7168 96.6118 19.7168C96.612 19.7168 96.6121 19.7168 96.6123 19.7168C96.6125 19.7168 96.6126 19.7168 96.6128 19.7168C96.6129 19.7168 96.6131 19.7168 96.6132 19.7168C96.6134 19.7168 96.6135 19.7168 96.6137 19.7168C96.6139 19.7168 96.614 19.7168 96.6142 19.7168C96.6143 19.7168 96.6145 19.7168 96.6146 19.7168C96.6148 19.7168 96.615 19.7168 96.6151 19.7168C96.6153 19.7168 96.6154 19.7168 96.6156 19.7168C96.6157 19.7168 96.6159 19.7168 96.616 19.7168C96.6162 19.7168 96.6164 19.7168 96.6165 19.7168C96.6167 19.7168 96.6168 19.7168 96.617 19.7168C96.6171 19.7168 96.6173 19.7168 96.6175 19.7168C96.6176 19.7168 96.6178 19.7168 96.6179 19.7168C96.6181 19.7168 96.6182 19.7168 96.6184 19.7168C96.6185 19.7168 96.6187 19.7168 96.6189 19.7168C96.619 19.7168 96.6192 19.7168 96.6193 19.7168C96.6195 19.7168 96.6196 19.7168 96.6198 19.7168C96.62 19.7168 96.6201 19.7168 96.6203 19.7168C96.6204 19.7168 96.6206 19.7168 96.6207 19.7168C96.6209 19.7168 96.621 19.7168 96.6212 19.7168C96.6214 19.7168 96.6215 19.7168 96.6217 19.7168C96.6218 19.7168 96.622 19.7168 96.6221 19.7168C96.6223 19.7168 96.6225 19.7168 96.6226 19.7168C96.6228 19.7168 96.6229 19.7168 96.6231 19.7168C96.6232 19.7168 96.6234 19.7168 96.6235 19.7168C96.6237 19.7168 96.6239 19.7168 96.624 19.7168C96.6242 19.7168 96.6243 19.7168 96.6245 19.7168C96.6246 19.7168 96.6248 19.7168 96.625 19.7168C96.6251 19.7168 96.6253 19.7168 96.6254 19.7168C96.6256 19.7168 96.6257 19.7168 96.6259 19.7168C96.626 19.7168 96.6262 19.7168 96.6264 19.7168C96.6265 19.7168 96.6267 19.7168 96.6268 19.7168C96.627 19.7168 96.6271 19.7168 96.6273 19.7168C96.6275 19.7168 96.6276 19.7168 96.6278 19.7168C96.6279 19.7168 96.6281 19.7168 96.6282 19.7168C96.6284 19.7168 96.6285 19.7168 96.6287 19.7168C96.6289 19.7168 96.629 19.7168 96.6292 19.7168C96.6293 19.7168 96.6295 19.7168 96.6296 19.7168C96.6298 19.7168 96.63 19.7168 96.6301 19.7168C96.6303 19.7168 96.6304 19.7168 96.6306 19.7168C96.6307 19.7168 96.6309 19.7168 96.631 19.7168C96.6312 19.7168 96.6314 19.7168 96.6315 19.7168C96.6317 19.7168 96.6318 19.7168 96.632 19.7168C96.6321 19.7168 96.6323 19.7168 96.6325 19.7168C96.6326 19.7168 96.6328 19.7168 96.6329 19.7168C96.6331 19.7168 96.6332 19.7168 96.6334 19.7168C96.6335 19.7168 96.6337 19.7168 96.6339 19.7168C96.634 19.7168 96.6342 19.7168 96.6343 19.7168C96.6345 19.7168 96.6346 19.7168 96.6348 19.7168C96.635 19.7168 96.6351 19.7168 96.6353 19.7168C96.6354 19.7168 96.6356 19.7168 96.6357 19.7168C96.6359 19.7168 96.636 19.7168 96.6362 19.7168C96.6364 19.7168 96.6365 19.7168 96.6367 19.7168C96.6368 19.7168 96.637 19.7168 96.6371 19.7168C96.6373 19.7168 96.6375 19.7168 96.6376 19.7168C96.6378 19.7168 96.6379 19.7168 96.6381 19.7168C96.6382 19.7168 96.6384 19.7168 96.6385 19.7168C96.6387 19.7168 96.6389 19.7168 96.639 19.7168C96.6392 19.7168 96.6393 19.7168 96.6395 19.7168C96.6396 19.7168 96.6398 19.7168 96.64 19.7168C96.6401 19.7168 96.6403 19.7168 96.6404 19.7168C96.6406 19.7168 96.6407 19.7168 96.6409 19.7168C96.641 19.7168 96.6412 19.7168 96.6414 19.7168C96.6415 19.7168 96.6417 19.7168 96.6418 19.7168C96.642 19.7168 96.6421 19.7168 96.6423 19.7168C96.6425 19.7168 96.6426 19.7168 96.6428 19.7168C96.6429 19.7168 96.6431 19.7168 96.6432 19.7168C96.6434 19.7168 96.6435 19.7168 96.6437 19.7168C96.6439 19.7168 96.644 19.7168 96.6442 19.7168C96.6443 19.7168 96.6445 19.7168 96.6446 19.7168C96.6448 19.7168 96.645 19.7168 96.6451 19.7168C96.6453 19.7168 96.6454 19.7168 96.6456 19.7168C96.6457 19.7168 96.6459 19.7168 96.646 19.7168C96.6462 19.7168 96.6464 19.7168 96.6465 19.7168C96.6467 19.7168 96.6468 19.7168 96.647 19.7168C96.6471 19.7168 96.6473 19.7168 96.6475 19.7168C96.6476 19.7168 96.6478 19.7168 96.6479 19.7168C96.6481 19.7168 96.6482 19.7168 96.6484 19.7168C96.6485 19.7168 96.6487 19.7168 96.6489 19.7168C96.649 19.7168 96.6492 19.7168 96.6493 19.7168C96.6495 19.7168 96.6496 19.7168 96.6498 19.7168C96.65 19.7168 96.6501 19.7168 96.6503 19.7168C96.6504 19.7168 96.6506 19.7168 96.6507 19.7168C96.6509 19.7168 96.651 19.7168 96.6512 19.7168C96.6514 19.7168 96.6515 19.7168 96.6517 19.7168C96.6518 19.7168 96.652 19.7168 96.6521 19.7168C96.6523 19.7168 96.6525 19.7168 96.6526 19.7168C96.6528 19.7168 96.6529 19.7168 96.6531 19.7168C96.6532 19.7168 96.6534 19.7168 96.6535 19.7168C96.6537 19.7168 96.6539 19.7168 96.654 19.7168C96.6542 19.7168 96.6543 19.7168 96.6545 19.7168C96.6546 19.7168 96.6548 19.7168 96.655 19.7168C96.6551 19.7168 96.6553 19.7168 96.6554 19.7168C96.6556 19.7168 96.6557 19.7168 96.6559 19.7168C96.656 19.7168 96.6562 19.7168 96.6564 19.7168C96.6565 19.7168 96.6567 19.7168 96.6568 19.7168C96.657 19.7168 96.6571 19.7168 96.6573 19.7168C96.6575 19.7168 96.6576 19.7168 96.6578 19.7168C96.6579 19.7168 96.6581 19.7168 96.6582 19.7168C96.6584 19.7168 96.6585 19.7168 96.6587 19.7168C96.6589 19.7168 96.659 19.7168 96.6592 19.7168C96.6593 19.7168 96.6595 19.7168 96.6596 19.7168C96.6598 19.7168 96.66 19.7168 96.6601 19.7168C96.6603 19.7168 96.6604 19.7168 96.6606 19.7168C96.6607 19.7168 96.6609 19.7168 96.661 19.7168C96.6612 19.7168 96.6614 19.7168 96.6615 19.7168C96.6617 19.7168 96.6618 19.7168 96.662 19.7168C96.6621 19.7168 96.6623 19.7168 96.6625 19.7168C96.6626 19.7168 96.6628 19.7168 96.6629 19.7168C96.6631 19.7168 96.6632 19.7168 96.6634 19.7168C96.6635 19.7168 96.6637 19.7168 96.6639 19.7168C96.664 19.7168 96.6642 19.7168 96.6643 19.7168C96.6645 19.7168 96.6646 19.7168 96.6648 19.7168C96.665 19.7168 96.6651 19.7168 96.6653 19.7168C96.6654 19.7168 96.6656 19.7168 96.6657 19.7168C96.6659 19.7168 96.666 19.7168 96.6662 19.7168C96.6664 19.7168 96.6665 19.7168 96.6667 19.7168C96.6668 19.7168 96.667 19.7168 96.6671 19.7168C96.6673 19.7168 96.6675 19.7168 96.6676 19.7168C96.6678 19.7168 96.6679 19.7168 96.6681 19.7168C96.6682 19.7168 96.6684 19.7168 96.6685 19.7168C96.6687 19.7168 96.6689 19.7168 96.669 19.7168C96.6692 19.7168 96.6693 19.7168 96.6695 19.7168C96.6696 19.7168 96.6698 19.7168 96.67 19.7168C96.6701 19.7168 96.6703 19.7168 96.6704 19.7168C96.6706 19.7168 96.6707 19.7168 96.6709 19.7168C96.671 19.7168 96.6712 19.7168 96.6714 19.7168C96.6715 19.7168 96.6717 19.7168 96.6718 19.7168C96.672 19.7168 96.6721 19.7168 96.6723 19.7168C96.6725 19.7168 96.6726 19.7168 96.6728 19.7168C96.6729 19.7168 96.6731 19.7168 96.6732 19.7168C96.6734 19.7168 96.6735 19.7168 96.6737 19.7168C96.6739 19.7168 96.674 19.7168 96.6742 19.7168C96.6743 19.7168 96.6745 19.7168 96.6746 19.7168C96.6748 19.7168 96.675 19.7168 96.6751 19.7168C96.6753 19.7168 96.6754 19.7168 96.6756 19.7168C96.6757 19.7168 96.6759 19.7168 96.676 19.7168C96.6762 19.7168 96.6764 19.7168 96.6765 19.7168C96.6767 19.7168 96.6768 19.7168 96.677 19.7168C96.6771 19.7168 96.6773 19.7168 96.6775 19.7168C96.6776 19.7168 96.6778 19.7168 96.6779 19.7168C96.6781 19.7168 96.6782 19.7168 96.6784 19.7168C96.6785 19.7168 96.6787 19.7168 96.6789 19.7168C96.679 19.7168 96.6792 19.7168 96.6793 19.7168C96.6795 19.7168 96.6796 19.7168 96.6798 19.7168C96.68 19.7168 96.6801 19.7168 96.6803 19.7168C96.6804 19.7168 96.6806 19.7168 96.6807 19.7168C96.6809 19.7168 96.681 19.7168 96.6812 19.7168C96.6814 19.7168 96.6815 19.7168 96.6817 19.7168C96.6818 19.7168 96.682 19.7168 96.6821 19.7168C96.6823 19.7168 96.6825 19.7168 96.6826 19.7168C96.6828 19.7168 96.6829 19.7168 96.6831 19.7168C96.6832 19.7168 96.6834 19.7168 96.6835 19.7168C96.6837 19.7168 96.6839 19.7168 96.684 19.7168C96.6842 19.7168 96.6843 19.7168 96.6845 19.7168C96.6846 19.7168 96.6848 19.7168 96.685 19.7168C96.6851 19.7168 96.6853 19.7168 96.6854 19.7168C96.6856 19.7168 96.6857 19.7168 96.6859 19.7168C96.686 19.7168 96.6862 19.7168 96.6864 19.7168C96.6865 19.7168 96.6867 19.7168 96.6868 19.7168C96.687 19.7168 96.6871 19.7168 96.6873 19.7168C96.6875 19.7168 96.6876 19.7168 96.6878 19.7168C96.6879 19.7168 96.6881 19.7168 96.6882 19.7168C96.6884 19.7168 96.6885 19.7168 96.6887 19.7168C96.6889 19.7168 96.689 19.7168 96.6892 19.7168C96.6893 19.7168 96.6895 19.7168 96.6896 19.7168C96.6898 19.7168 96.69 19.7168 96.6901 19.7168C96.6903 19.7168 96.6904 19.7168 96.6906 19.7168C96.6907 19.7168 96.6909 19.7168 96.691 19.7168C96.6912 19.7168 96.6914 19.7168 96.6915 19.7168C96.6917 19.7168 96.6918 19.7168 96.692 19.7168C96.6921 19.7168 96.6923 19.7168 96.6925 19.7168C96.6926 19.7168 96.6928 19.7168 96.6929 19.7168C96.6931 19.7168 96.6932 19.7168 96.6934 19.7168C96.6935 19.7168 96.6937 19.7168 96.6939 19.7168C96.694 19.7168 96.6942 19.7168 96.6943 19.7168C96.6945 19.7168 96.6946 19.7168 96.6948 19.7168C96.695 19.7168 96.6951 19.7168 96.6953 19.7168C96.6954 19.7168 96.6956 19.7168 96.6957 19.7168C96.6959 19.7168 96.696 19.7168 96.6962 19.7168C96.6964 19.7168 96.6965 19.7168 96.6967 19.7168C96.6968 19.7168 96.697 19.7168 96.6971 19.7168C96.6973 19.7168 96.6975 19.7168 96.6976 19.7168C96.6978 19.7168 96.6979 19.7168 96.6981 19.7168C96.6982 19.7168 96.6984 19.7168 96.6985 19.7168C96.6987 19.7168 96.6989 19.7168 96.699 19.7168C96.6992 19.7168 96.6993 19.7168 96.6995 19.7168C96.6996 19.7168 96.6998 19.7168 96.7 19.7168C96.7001 19.7168 96.7003 19.7168 96.7004 19.7168C96.7006 19.7168 96.7007 19.7168 96.7009 19.7168C96.701 19.7168 96.7012 19.7168 96.7014 19.7168C96.7015 19.7168 96.7017 19.7168 96.7018 19.7168C96.702 19.7168 96.7021 19.7168 96.7023 19.7168C96.7025 19.7168 96.7026 19.7168 96.7028 19.7168C96.7029 19.7168 96.7031 19.7168 96.7032 19.7168C96.7034 19.7168 96.7035 19.7168 96.7037 19.7168C96.7039 19.7168 96.704 19.7168 96.7042 19.7168C96.7043 19.7168 96.7045 19.7168 96.7046 19.7168C96.7048 19.7168 96.705 19.7168 96.7051 19.7168C96.7053 19.7168 96.7054 19.7168 96.7056 19.7168C96.7057 19.7168 96.7059 19.7168 96.706 19.7168C96.7062 19.7168 96.7064 19.7168 96.7065 19.7168C96.7067 19.7168 96.7068 19.7168 96.707 19.7168C96.7071 19.7168 96.7073 19.7168 96.7075 19.7168C96.7076 19.7168 96.7078 19.7168 96.7079 19.7168C96.7081 19.7168 96.7082 19.7168 96.7084 19.7168C96.7085 19.7168 96.7087 19.7168 96.7089 19.7168C96.709 19.7168 96.7092 19.7168 96.7093 19.7168C96.7095 19.7168 96.7096 19.7168 96.7098 19.7168C96.71 19.7168 96.7101 19.7168 96.7103 19.7168C96.7104 19.7168 96.7106 19.7168 96.7107 19.7168C96.7109 19.7168 96.711 19.7168 96.7112 19.7168C96.7114 19.7168 96.7115 19.7168 96.7117 19.7168C96.7118 19.7168 96.712 19.7168 96.7121 19.7168C96.7123 19.7168 96.7125 19.7168 96.7126 19.7168C96.7128 19.7168 96.7129 19.7168 96.7131 19.7168C96.7132 19.7168 96.7134 19.7168 96.7135 19.7168C96.7137 19.7168 96.7139 19.7168 96.714 19.7168C96.7142 19.7168 96.7143 19.7168 96.7145 19.7168C96.7146 19.7168 96.7148 19.7168 96.715 19.7168C96.7151 19.7168 96.7153 19.7168 96.7154 19.7168C96.7156 19.7168 96.7157 19.7168 96.7159 19.7168C96.716 19.7168 96.7162 19.7168 96.7164 19.7168C96.7165 19.7168 96.7167 19.7168 96.7168 19.7168C96.717 19.7168 96.7171 19.7168 96.7173 19.7168C96.7175 19.7168 96.7176 19.7168 96.7178 19.7168C96.7179 19.7168 96.7181 19.7168 96.7182 19.7168C96.7184 19.7168 96.7185 19.7168 96.7187 19.7168C96.7189 19.7168 96.719 19.7168 96.7192 19.7168C96.7193 19.7168 96.7195 19.7168 96.7196 19.7168C96.7198 19.7168 96.72 19.7168 96.7201 19.7168V17.7168ZM96.4801 17.7168C95.0359 17.7168 93.7818 18.1561 92.8373 19.1216L94.2669 20.5201C94.7625 20.0136 95.4603 19.7168 96.4801 19.7168V17.7168ZM92.8373 19.1216C91.8777 20.1024 91.4721 21.4537 91.4721 23.0128H93.4721C93.4721 21.788 93.7865 21.0113 94.2669 20.5201L92.8373 19.1216ZM91.4721 23.0128V29.3488H93.4721V23.0128H91.4721ZM92.4721 28.3488H90.1681V30.3488H92.4721V28.3488ZM101.139 33.8368L101.479 32.8963C101.471 32.8935 101.463 32.8908 101.456 32.8882L101.139 33.8368ZM99.6514 32.9728L98.7824 32.478C98.5522 32.8823 98.6312 33.3921 98.9731 33.7076L99.6514 32.9728ZM100.635 31.2448L101.324 30.5198C101.101 30.3081 100.793 30.2106 100.489 30.2556C100.185 30.3005 99.9186 30.4829 99.7664 30.75L100.635 31.2448ZM101.691 31.9408L102.076 31.0178L101.691 31.9408ZM104.307 31.7488L103.691 30.9613L104.307 31.7488ZM105.339 30.2128L104.428 29.8009C104.426 29.8053 104.424 29.8097 104.422 29.8141L105.339 30.2128ZM106.131 28.4608L105.363 27.8207C105.305 27.89 105.257 27.9667 105.22 28.0489L106.131 28.4608ZM106.371 28.1728L107.14 28.813C107.201 28.7395 107.251 28.6576 107.289 28.5698L106.371 28.1728ZM111.363 16.6288V15.6288C110.965 15.6288 110.604 15.8659 110.446 16.2319L111.363 16.6288ZM113.619 16.6288L114.534 17.0322C114.671 16.723 114.642 16.3658 114.457 16.0827C114.272 15.7996 113.957 15.6288 113.619 15.6288V16.6288ZM107.451 30.6208L106.536 30.2175C106.533 30.2253 106.53 30.2331 106.526 30.2409L107.451 30.6208ZM106.203 32.7328L105.462 32.0613C105.459 32.0656 105.455 32.07 105.451 32.0743L106.203 32.7328ZM104.715 33.8128L104.358 32.8788C104.35 32.8818 104.343 32.8849 104.335 32.8882L104.715 33.8128ZM105.939 29.7568L105.025 30.1614C105.164 30.4758 105.455 30.6967 105.795 30.7464C106.135 30.796 106.477 30.6675 106.7 30.406L105.939 29.7568ZM100.131 16.6288V15.6288C99.7932 15.6288 99.4779 15.7998 99.2934 16.0832C99.1089 16.3666 99.0801 16.7241 99.2169 17.0334L100.131 16.6288ZM102.531 16.6288L103.448 16.2288C103.289 15.8644 102.929 15.6288 102.531 15.6288V16.6288ZM107.475 27.9568L108.236 28.606C108.485 28.3149 108.545 27.9076 108.392 27.5568L107.475 27.9568ZM102.915 33.1488C102.424 33.1488 101.947 33.0653 101.479 32.8963L100.8 34.7774C101.484 35.0244 102.191 35.1488 102.915 35.1488V33.1488ZM101.456 32.8882C101.004 32.7377 100.634 32.5191 100.33 32.238L98.9731 33.7076C99.5007 34.1946 100.123 34.552 100.823 34.7855L101.456 32.8882ZM100.52 33.4677L101.504 31.7397L99.7664 30.75L98.7824 32.478L100.52 33.4677ZM99.9467 31.9698C100.35 32.3527 100.803 32.6542 101.307 32.8639L102.076 31.0178C101.811 30.9075 101.561 30.745 101.324 30.5198L99.9467 31.9698ZM101.307 32.8639C101.817 33.0767 102.357 33.1808 102.915 33.1808V31.1808C102.61 31.1808 102.333 31.125 102.076 31.0178L101.307 32.8639ZM102.915 33.1808C103.653 33.1808 104.347 32.9878 104.924 32.5364L103.691 30.9613C103.532 31.0858 103.298 31.1808 102.915 31.1808V33.1808ZM104.924 32.5364C105.486 32.0966 105.912 31.4048 106.256 30.6116L104.422 29.8141C104.127 30.4929 103.865 30.825 103.691 30.9613L104.924 32.5364ZM106.251 30.6248L107.043 28.8728L105.22 28.0489L104.428 29.8009L106.251 30.6248ZM106.9 29.101L107.14 28.813L105.603 27.5327L105.363 27.8207L106.9 29.101ZM107.289 28.5698L112.281 17.0258L110.446 16.2319L105.454 27.7759L107.289 28.5698ZM111.363 17.6288H113.619V15.6288H111.363V17.6288ZM112.704 16.2255L106.536 30.2175L108.366 31.0242L114.534 17.0322L112.704 16.2255ZM106.526 30.2409C106.186 31.0695 105.824 31.662 105.462 32.0613L106.944 33.4044C107.511 32.7797 107.981 31.9642 108.376 31.0008L106.526 30.2409ZM105.451 32.0743C105.092 32.4843 104.726 32.7381 104.358 32.8788L105.073 34.7469C105.793 34.4716 106.419 34.0054 106.956 33.3914L105.451 32.0743ZM104.335 32.8882C103.925 33.057 103.456 33.1488 102.915 33.1488V35.1488C103.687 35.1488 104.418 35.0167 105.096 34.7375L104.335 32.8882ZM106.854 29.3523L101.046 16.2243L99.2169 17.0334L105.025 30.1614L106.854 29.3523ZM100.131 17.6288H102.531V15.6288H100.131V17.6288ZM101.615 17.0288L106.559 28.3568L108.392 27.5568L103.448 16.2288L101.615 17.0288ZM106.715 27.3077L105.179 29.1077L106.7 30.406L108.236 28.606L106.715 27.3077Z" fill="#141856"/>
</svg>
